<svg width="59" height="56" viewBox="0 0 59 56" fill="none" xmlns="http://www.w3.org/2000/svg">
<mask id="mask0_201_1849" style="mask-type:alpha" maskUnits="userSpaceOnUse" x="0" y="0" width="59" height="56">
<path d="M51.274 32.8235C51.2752 32.9202 51.2573 33.0161 51.2212 33.1058C51.185 33.1955 51.1315 33.2771 51.0635 33.3459C50.9956 33.4147 50.9147 33.4693 50.8255 33.5066C50.7363 33.5438 50.6406 33.5631 50.5439 33.563C50.3478 33.563 50.1597 33.4851 50.021 33.3464C49.8823 33.2078 49.8044 33.0196 49.8044 32.8235C49.8044 32.6274 49.8823 32.4393 50.021 32.3006C50.1597 32.1619 50.3478 32.084 50.5439 32.084C50.6406 32.084 50.7363 32.1031 50.8255 32.1404C50.9147 32.1777 50.9956 32.2323 51.0635 32.3011C51.1315 32.3699 51.185 32.4516 51.2212 32.5412C51.2573 32.6309 51.2752 32.7268 51.274 32.8235Z" fill="#09D468"/>
<path d="M51.274 39.8112C51.2752 39.9078 51.2573 40.0038 51.2212 40.0935C51.185 40.1831 51.1315 40.2647 51.0635 40.3335C50.9956 40.4023 50.9147 40.457 50.8255 40.4943C50.7363 40.5315 50.6406 40.5507 50.5439 40.5507C50.3478 40.5507 50.1597 40.4728 50.021 40.3341C49.8823 40.1954 49.8044 40.0073 49.8044 39.8112C49.8044 39.615 49.8823 39.4269 50.021 39.2882C50.1597 39.1496 50.3478 39.0716 50.5439 39.0716C50.6406 39.0716 50.7363 39.0908 50.8255 39.1281C50.9147 39.1654 50.9956 39.22 51.0635 39.2888C51.1315 39.3576 51.185 39.4392 51.2212 39.5289C51.2573 39.6186 51.2752 39.7145 51.274 39.8112Z" fill="#09D468"/>
<path d="M51.274 46.8747C51.2752 46.9714 51.2573 47.0673 51.2212 47.157C51.185 47.2467 51.1315 47.3283 51.0635 47.3971C50.9956 47.4659 50.9147 47.5205 50.8255 47.5578C50.7363 47.595 50.6406 47.6143 50.5439 47.6142C50.3478 47.6142 50.1597 47.5363 50.021 47.3976C49.8823 47.2589 49.8044 47.0708 49.8044 46.8747C49.8044 46.6786 49.8823 46.4905 50.021 46.3518C50.1597 46.2131 50.3478 46.1352 50.5439 46.1352C50.6406 46.1352 50.7363 46.1543 50.8255 46.1916C50.9147 46.2289 50.9956 46.2835 51.0635 46.3523C51.1315 46.4211 51.185 46.5027 51.2212 46.5924C51.2573 46.6821 51.2752 46.778 51.274 46.8747Z" fill="#09D468"/>
<path d="M56.83 4.68319H58.33H56.83ZM54.1373 54.0899V52.5899V54.0899ZM4.68319 54.0899V55.5899V54.0899ZM14.444 8.68049C13.6356 8.8612 13.1266 9.66308 13.3073 10.4716C13.488 11.28 14.2899 11.789 15.0984 11.6083L14.444 8.68049ZM16.2313 9.98321L16.2336 8.48321H16.2313L16.2313 9.98321ZM9.87891 16.3262L11.3789 16.3262L11.3789 16.3237L9.87891 16.3262ZM11.4648 15.4288C11.6238 14.6158 11.0935 13.8278 10.2805 13.6689C9.46744 13.5099 8.67949 14.0402 8.52055 14.8532L11.4648 15.4288ZM46.2344 12.674C45.9087 11.9123 45.0272 11.5588 44.2655 11.8845C43.5037 12.2102 43.1503 13.0917 43.476 13.8535L46.2344 12.674ZM45.4904 16.3736L43.9904 16.372L43.9904 16.3753L45.4904 16.3736ZM37.4977 8.38088L37.496 9.88091L37.505 9.88086L37.4977 8.38088ZM39.7547 10.2864C40.5295 10.5794 41.3952 10.1888 41.6883 9.41396C41.9813 8.63908 41.5907 7.77338 40.8158 7.48036L39.7547 10.2864ZM39.2756 47.3999C40.0841 47.2192 40.593 46.4173 40.4123 45.6089C40.2316 44.8004 39.4297 44.2915 38.6212 44.4722L39.2756 47.3999ZM37.4883 46.0973L37.486 47.5973H37.4883L37.4883 46.0973ZM43.8407 39.7543H42.3407L42.3407 39.7586L43.8407 39.7543ZM42.2556 40.6381C42.0944 41.4507 42.6225 42.2401 43.4351 42.4013C44.2477 42.5625 45.0371 42.0344 45.1983 41.2218L42.2556 40.6381ZM7.48565 43.4549C7.81192 44.2164 8.69371 44.5692 9.45518 44.2429C10.2167 43.9166 10.5695 43.0348 10.2432 42.2734L7.48565 43.4549ZM8.22917 39.7543L9.72917 39.757V39.7542L8.22917 39.7543ZM13.9575 45.8386C13.1811 45.5497 12.3175 45.9449 12.0286 46.7213C11.7396 47.4977 12.1348 48.3614 12.9112 48.6503L13.9575 45.8386ZM51.274 32.8235L49.7741 32.804L49.7739 32.8235L49.7741 32.843L51.274 32.8235ZM50.5439 33.563L50.5441 32.063H50.5439V33.563ZM50.5439 32.084V33.584H50.5441L50.5439 32.084ZM51.274 39.8112L49.7741 39.7917L49.7739 39.8112L49.7741 39.8307L51.274 39.8112ZM50.5439 40.5507L50.5441 39.0507H50.5439V40.5507ZM50.5439 39.0716V40.5716H50.5441L50.5439 39.0716ZM51.274 46.8747L49.7741 46.8552L49.7739 46.8747L49.7741 46.8942L51.274 46.8747ZM50.5439 47.6142L50.5441 46.1142H50.5439V47.6142ZM50.5439 46.1352V47.6352H50.5441L50.5439 46.1352ZM4.68319 3.5H54.1468V0.5H4.68319V3.5ZM54.1468 3.5C54.4606 3.5 54.7616 3.62466 54.9835 3.84655L57.1048 1.72523C56.3203 0.940727 55.2563 0.5 54.1468 0.5V3.5ZM54.9835 3.84655C55.2053 4.06844 55.33 4.36939 55.33 4.68319H58.33C58.33 3.57374 57.8893 2.50973 57.1048 1.72523L54.9835 3.84655ZM55.33 4.68319V51.3972H58.33V4.68319H55.33ZM55.33 51.3972C55.33 51.7136 55.2043 52.0169 54.9807 52.2406L57.102 54.3619C57.8883 53.5756 58.33 52.5092 58.33 51.3972H55.33ZM54.9807 52.2406C54.757 52.4643 54.4537 52.5899 54.1373 52.5899V55.5899C55.2493 55.5899 56.3157 55.1482 57.102 54.3619L54.9807 52.2406ZM54.1373 52.5899H4.68319V55.5899H54.1373V52.5899ZM4.68319 52.5899C4.36939 52.5899 4.06844 52.4653 3.84655 52.2434L1.72523 54.3647C2.50973 55.1492 3.57374 55.5899 4.68319 55.5899V52.5899ZM3.84655 52.2434C3.62466 52.0215 3.5 51.7205 3.5 51.4067H0.5C0.5 52.5162 0.94073 53.5802 1.72523 54.3647L3.84655 52.2434ZM3.5 51.4067V4.68319H0.5V51.4067H3.5ZM3.5 4.68319C3.5 4.36939 3.62466 4.06844 3.84655 3.84655L1.72523 1.72523C0.940728 2.50973 0.5 3.57374 0.5 4.68319H3.5ZM3.84655 3.84655C4.06844 3.62466 4.36939 3.5 4.68319 3.5V0.5C3.57374 0.5 2.50973 0.940727 1.72523 1.72523L3.84655 3.84655ZM15.0984 11.6083C15.4703 11.5251 15.8502 11.4832 16.2313 11.4832L16.2313 8.48321C15.6302 8.48321 15.0308 8.54935 14.444 8.68049L15.0984 11.6083ZM16.2291 11.4832C17.1866 11.4846 18.1223 11.7699 18.9177 12.3029L20.5877 9.81068C19.2995 8.94748 17.7843 8.48553 16.2336 8.48321L16.2291 11.4832ZM18.9177 12.3029C19.7132 12.8359 20.3328 13.5928 20.6982 14.4778L23.4712 13.3329C22.8793 11.8996 21.8759 10.6739 20.5877 9.81068L18.9177 12.3029ZM20.6982 14.4778C21.0637 15.3629 21.1586 16.3364 20.9709 17.2754L23.9127 17.8634C24.2166 16.3428 24.063 14.7662 23.4712 13.3329L20.6982 14.4778ZM20.9709 17.2754C20.7832 18.2143 20.3214 19.0766 19.6438 19.7532L21.7635 21.8761C22.8608 20.7804 23.6087 19.384 23.9127 17.8634L20.9709 17.2754ZM19.6438 19.7532C18.9662 20.4298 18.1033 20.8903 17.164 21.0766L17.7476 24.0192C19.2687 23.7176 20.6662 22.9718 21.7635 21.8761L19.6438 19.7532ZM17.164 21.0766C16.2248 21.2628 15.2514 21.1665 14.3669 20.7998L13.2178 23.571C14.6502 24.1649 16.2266 24.3209 17.7476 24.0192L17.164 21.0766ZM14.3669 20.7998C13.4824 20.433 12.7264 19.8122 12.1946 19.016L9.69987 20.6822C10.5611 21.9717 11.7854 22.977 13.2178 23.571L14.3669 20.7998ZM12.1946 19.016C11.6628 18.2197 11.3789 17.2837 11.3789 16.3262L8.37891 16.3262C8.37891 17.8769 8.8386 19.3927 9.69987 20.6822L12.1946 19.016ZM11.3789 16.3237C11.3784 16.0233 11.4072 15.7236 11.4648 15.4288L8.52055 14.8532C8.42554 15.3392 8.3781 15.8334 8.37891 16.3286L11.3789 16.3237ZM43.476 13.8535C43.8163 14.6494 43.9914 15.5063 43.9904 16.372L46.9904 16.3752C46.9918 15.103 46.7346 13.8437 46.2344 12.674L43.476 13.8535ZM43.9904 16.3753C43.992 17.662 43.6117 18.9202 42.8978 19.9906L45.3937 21.6551C46.437 20.0908 46.9927 18.2521 46.9904 16.3718L43.9904 16.3753ZM42.8978 19.9906C42.184 21.0611 41.1685 21.8957 39.9801 22.3888L41.1298 25.1597C42.8666 24.4392 44.3505 23.2195 45.3937 21.6551L42.8978 19.9906ZM39.9801 22.3888C38.7917 22.8819 37.4837 23.0113 36.2217 22.7606L35.6373 25.7032C37.4815 26.0694 39.393 25.8803 41.1298 25.1597L39.9801 22.3888ZM36.2217 22.7606C34.9596 22.51 33.8004 21.8906 32.8906 20.9808L30.7692 23.1021C32.0988 24.4317 33.793 25.3369 35.6373 25.7032L36.2217 22.7606ZM32.8906 20.9808C31.9807 20.0709 31.3613 18.9117 31.1107 17.6497L28.1681 18.2341C28.5344 20.0784 29.4397 21.7725 30.7692 23.1021L32.8906 20.9808ZM31.1107 17.6497C30.86 16.3877 30.9894 15.0797 31.4825 13.8912L28.7116 12.7415C27.991 14.4783 27.8019 16.3898 28.1681 18.2341L31.1107 17.6497ZM31.4825 13.8912C31.9756 12.7028 32.8102 11.6873 33.8807 10.9735L32.2162 8.47758C30.6518 9.52084 29.4322 11.0048 28.7116 12.7415L31.4825 13.8912ZM33.8807 10.9735C34.9511 10.2596 36.2093 9.87936 37.496 9.88088L37.4995 6.88088C35.6192 6.87866 33.7805 7.43432 32.2162 8.47758L33.8807 10.9735ZM37.505 9.88086C38.2734 9.87716 39.0359 10.0146 39.7547 10.2864L40.8158 7.48036C39.7534 7.07861 38.6263 6.87542 37.4905 6.8809L37.505 9.88086ZM38.6212 44.4722C38.2493 44.5553 37.8693 44.5973 37.4883 44.5973L37.4883 47.5973C38.0895 47.5973 38.6889 47.5311 39.2756 47.3999L38.6212 44.4722ZM37.4905 44.5973C36.533 44.5958 35.5974 44.3106 34.8019 43.7776L33.1319 46.2698C34.4202 47.133 35.9354 47.5949 37.486 47.5973L37.4905 44.5973ZM34.8019 43.7776C34.0064 43.2445 33.3868 42.4877 33.0214 41.6026L30.2485 42.7475C30.8403 44.1809 31.8437 45.4066 33.1319 46.2698L34.8019 43.7776ZM33.0214 41.6026C32.6559 40.7175 32.5611 39.744 32.7488 38.8051L29.8069 38.217C29.503 39.7376 29.6566 41.3142 30.2485 42.7475L33.0214 41.6026ZM32.7488 38.8051C32.9364 37.8661 33.3982 37.0038 34.0758 36.3273L31.9561 34.2044C30.8588 35.3 30.1109 36.6964 29.8069 38.217L32.7488 38.8051ZM34.0758 36.3273C34.7534 35.6507 35.6164 35.1902 36.5556 35.0039L35.972 32.0612C34.4509 32.3629 33.0534 33.1087 31.9561 34.2044L34.0758 36.3273ZM36.5556 35.0039C37.4948 34.8176 38.4682 34.9139 39.3527 35.2807L40.5018 32.5095C39.0694 31.9155 37.493 31.7595 35.972 32.0612L36.5556 35.0039ZM39.3527 35.2807C40.2373 35.6475 40.9932 36.2682 41.525 37.0645L44.0197 35.3982C43.1585 34.1087 41.9342 33.1035 40.5018 32.5095L39.3527 35.2807ZM41.525 37.0645C42.0569 37.8607 42.3407 38.7968 42.3407 39.7543H45.3407C45.3407 38.2036 44.881 36.6877 44.0197 35.3982L41.525 37.0645ZM42.3407 39.7586C42.3416 40.0539 42.3131 40.3485 42.2556 40.6381L45.1983 41.2218C45.2944 40.7371 45.3421 40.2441 45.3407 39.75L42.3407 39.7586ZM10.2432 42.2734C9.9025 41.4783 9.7276 40.622 9.72917 39.757L6.72918 39.7516C6.72686 41.0246 6.98427 42.2847 7.48565 43.4549L10.2432 42.2734ZM9.72917 39.7542C9.72906 38.3713 10.1704 37.0246 10.989 35.9101L8.57115 34.1342C7.37432 35.7636 6.729 37.7327 6.72917 39.7544L9.72917 39.7542ZM10.989 35.9101C11.8076 34.7956 12.9606 33.9716 14.2802 33.5581L13.383 30.6953C11.4538 31.3 9.76798 32.5047 8.57115 34.1342L10.989 35.9101ZM14.2802 33.5581C15.5997 33.1445 17.0168 33.1631 18.3251 33.611L19.2969 30.7728C17.3841 30.1179 15.3123 30.0907 13.383 30.6953L14.2802 33.5581ZM18.3251 33.611C19.6333 34.059 20.7644 34.9129 21.5535 36.0484L24.0171 34.3364C22.8633 32.6762 21.2096 31.4277 19.2969 30.7728L18.3251 33.611ZM21.5535 36.0484C22.3427 37.184 22.7486 38.5418 22.7123 39.9241L25.7113 40.0029C25.7644 37.9819 25.1708 35.9966 24.0171 34.3364L21.5535 36.0484ZM22.7123 39.9241C22.676 41.3065 22.1993 42.6411 21.3516 43.7337L23.7218 45.5727C24.9612 43.9753 25.6582 42.024 25.7113 40.0029L22.7123 39.9241ZM21.3516 43.7337C20.5039 44.8262 19.3296 45.6195 17.9996 45.9982L18.821 48.8835C20.7655 48.3299 22.4825 47.17 23.7218 45.5727L21.3516 43.7337ZM17.9996 45.9982C16.6696 46.3768 15.2535 46.3209 13.9575 45.8386L12.9112 48.6503C14.8061 49.3554 16.8765 49.4371 18.821 48.8835L17.9996 45.9982ZM49.7741 32.843C49.7728 32.741 49.7917 32.6398 49.8298 32.5453L52.6125 33.6663C52.7229 33.3924 52.7777 33.0993 52.7739 32.804L49.7741 32.843ZM49.8298 32.5453C49.8679 32.4507 49.9245 32.3646 49.9961 32.2921L52.131 34.3997C52.3385 34.1895 52.5021 33.9403 52.6125 33.6663L49.8298 32.5453ZM49.9961 32.2921C50.0677 32.2195 50.153 32.1619 50.2471 32.1226L51.404 34.8905C51.6764 34.7767 51.9236 34.6098 52.131 34.3997L49.9961 32.2921ZM50.2471 32.1226C50.341 32.0833 50.442 32.063 50.5441 32.063L50.5438 35.063C50.8393 35.0631 51.1316 35.0044 51.404 34.8905L50.2471 32.1226ZM50.5439 32.063C50.7456 32.063 50.939 32.1432 51.0817 32.2858L48.9603 34.4071C49.3804 34.8271 49.95 35.063 50.5439 35.063V32.063ZM51.0817 32.2858C51.2243 32.4284 51.3044 32.6218 51.3044 32.8235H48.3044C48.3044 33.4175 48.5403 33.9871 48.9603 34.4071L51.0817 32.2858ZM51.3044 32.8235C51.3044 33.0252 51.2243 33.2186 51.0817 33.3612L48.9603 31.2399C48.5403 31.6599 48.3044 32.2296 48.3044 32.8235H51.3044ZM51.0817 33.3612C50.939 33.5039 50.7456 33.584 50.5439 33.584V30.584C49.95 30.584 49.3803 30.8199 48.9603 31.2399L51.0817 33.3612ZM50.5441 33.584C50.4422 33.584 50.3413 33.5638 50.2471 33.5244L51.404 30.7564C51.1314 30.6425 50.839 30.5839 50.5438 30.584L50.5441 33.584ZM50.2471 33.5244C50.153 33.4851 50.0677 33.4275 49.9961 33.3549L52.131 31.2473C51.9235 31.0372 51.6764 30.8703 51.404 30.7564L50.2471 33.5244ZM49.9961 33.3549C49.9243 33.2823 49.8679 33.1962 49.8298 33.1018L52.6125 31.9807C52.5022 31.7069 52.3386 31.4576 52.131 31.2473L49.9961 33.3549ZM49.8298 33.1018C49.7917 33.0072 49.7728 32.906 49.7741 32.804L52.7739 32.843C52.7777 32.5477 52.7229 32.2546 52.6125 31.9807L49.8298 33.1018ZM49.7741 39.8307C49.7728 39.7287 49.7917 39.6275 49.8298 39.5329L52.6125 40.654C52.7229 40.3801 52.7777 40.087 52.7739 39.7917L49.7741 39.8307ZM49.8298 39.5329C49.8679 39.4383 49.9245 39.3523 49.9961 39.2797L52.131 41.3873C52.3385 41.1772 52.5021 40.9279 52.6125 40.654L49.8298 39.5329ZM49.9961 39.2797C50.0676 39.2073 50.1528 39.1497 50.2471 39.1103L51.404 41.8782C51.6766 41.7643 51.9237 41.5973 52.131 41.3873L49.9961 39.2797ZM50.2471 39.1103C50.3413 39.0709 50.4422 39.0507 50.5441 39.0507L50.5438 42.0507C50.839 42.0507 51.1314 41.9922 51.404 41.8782L50.2471 39.1103ZM50.5439 39.0507C50.7456 39.0507 50.939 39.1308 51.0817 39.2734L48.9603 41.3948C49.3804 41.8148 49.95 42.0507 50.5439 42.0507V39.0507ZM51.0817 39.2734C51.2243 39.4161 51.3044 39.6095 51.3044 39.8112H48.3044C48.3044 40.4051 48.5403 40.9748 48.9603 41.3948L51.0817 39.2734ZM51.3044 39.8112C51.3044 40.0128 51.2243 40.2063 51.0817 40.3489L48.9603 38.2276C48.5403 38.6476 48.3044 39.2172 48.3044 39.8112H51.3044ZM51.0817 40.3489C50.939 40.4915 50.7456 40.5716 50.5439 40.5716V37.5716C49.95 37.5716 49.3804 37.8076 48.9603 38.2276L51.0817 40.3489ZM50.5441 40.5716C50.4422 40.5716 50.3413 40.5514 50.2471 40.5121L51.404 37.7441C51.1314 37.6302 50.839 37.5716 50.5438 37.5716L50.5441 40.5716ZM50.2471 40.5121C50.1528 40.4727 50.0676 40.415 49.9961 40.3426L52.131 38.235C51.9237 38.025 51.6766 37.8581 51.404 37.7441L50.2471 40.5121ZM49.9961 40.3426C49.9245 40.2701 49.8679 40.184 49.8298 40.0894L52.6125 38.9684C52.5021 38.6944 52.3385 38.4452 52.131 38.235L49.9961 40.3426ZM49.8298 40.0894C49.7917 39.9949 49.7728 39.8937 49.7741 39.7917L52.7739 39.8307C52.7777 39.5354 52.7229 39.2423 52.6125 38.9684L49.8298 40.0894ZM49.7741 46.8942C49.7728 46.7922 49.7917 46.691 49.8298 46.5965L52.6125 47.7175C52.7229 47.4436 52.7777 47.1505 52.7739 46.8552L49.7741 46.8942ZM49.8298 46.5965C49.8679 46.5019 49.9245 46.4158 49.9961 46.3433L52.131 48.4509C52.3385 48.2407 52.5021 47.9915 52.6125 47.7175L49.8298 46.5965ZM49.9961 46.3433C50.0677 46.2707 50.153 46.2131 50.2471 46.1738L51.404 48.9417C51.6764 48.8279 51.9235 48.661 52.131 48.4509L49.9961 46.3433ZM50.2471 46.1738C50.341 46.1345 50.442 46.1142 50.5441 46.1142L50.5438 49.1142C50.8393 49.1143 51.1316 49.0556 51.404 48.9417L50.2471 46.1738ZM50.5439 46.1142C50.7456 46.1142 50.939 46.1944 51.0817 46.337L48.9603 48.4583C49.3803 48.8783 49.95 49.1142 50.5439 49.1142V46.1142ZM51.0817 46.337C51.2243 46.4796 51.3044 46.673 51.3044 46.8747H48.3044C48.3044 47.4687 48.5403 48.0383 48.9603 48.4583L51.0817 46.337ZM51.3044 46.8747C51.3044 47.0764 51.2243 47.2698 51.0817 47.4124L48.9603 45.2911C48.5403 45.7111 48.3044 46.2808 48.3044 46.8747H51.3044ZM51.0817 47.4124C50.939 47.5551 50.7456 47.6352 50.5439 47.6352V44.6352C49.95 44.6352 49.3804 44.8711 48.9603 45.2911L51.0817 47.4124ZM50.5441 47.6352C50.4423 47.6352 50.3413 47.615 50.2471 47.5756L51.404 44.8076C51.1313 44.6937 50.839 44.6351 50.5438 44.6352L50.5441 47.6352ZM50.2471 47.5756C50.153 47.5363 50.0677 47.4787 49.9961 47.4061L52.131 45.2985C51.9236 45.0884 51.6764 44.9215 51.404 44.8076L50.2471 47.5756ZM49.9961 47.4061C49.9245 47.3336 49.868 47.2475 49.8298 47.1529L52.6125 46.0319C52.5021 45.7579 52.3385 45.5087 52.131 45.2985L49.9961 47.4061ZM49.8298 47.1529C49.7917 47.0583 49.7728 46.9571 49.7741 46.8552L52.7739 46.8942C52.7777 46.599 52.7229 46.3058 52.6125 46.0319L49.8298 47.1529Z" fill="#30CA51"/>
</mask>
<g mask="url(#mask0_201_1849)">
<rect x="-27" y="-18" width="113" height="93" fill="#30CA51"/>
<rect x="5" y="6" width="49" height="45" fill="#30CA51"/>
</g>
</svg>
