<svg width="42" height="55" viewBox="0 0 42 55" fill="none" xmlns="http://www.w3.org/2000/svg">
<mask id="mask0_201_1853" style="mask-type:alpha" maskUnits="userSpaceOnUse" x="0" y="0" width="42" height="55">
<path d="M35.401 54.9231H6.59898C4.85548 54.9273 3.18148 54.2529 1.94432 53.048C0.707166 51.8431 0.00788061 50.206 0 48.496V6.42703C0.00788061 4.71704 0.707166 3.07995 1.94432 1.87503C3.18148 0.670106 4.85548 -0.00421641 6.59898 1.98397e-05H35.401C37.1445 -0.00421641 38.8185 0.670106 40.0557 1.87503C41.2928 3.07995 41.9921 4.71704 42 6.42703V48.5066C41.9893 50.2148 41.2888 51.8491 40.0519 53.0518C38.8151 54.2544 37.1427 54.9273 35.401 54.9231ZM6.59898 3.50421C5.8069 3.50279 5.04649 3.80931 4.48437 4.35665C3.92225 4.90398 3.60423 5.64752 3.59993 6.42438V48.5066C3.60423 49.2835 3.92225 50.027 4.48437 50.5744C5.04649 51.1217 5.8069 51.4282 6.59898 51.4268H35.401C36.1931 51.4282 36.9535 51.1217 37.5156 50.5744C38.0777 50.027 38.3958 49.2835 38.4001 48.5066V6.42703C38.3958 5.65017 38.0777 4.90664 37.5156 4.3593C36.9535 3.81197 36.1931 3.50545 35.401 3.50686L6.59898 3.50421Z" fill="#30CA51"/>
<path d="M21.0014 45.5865C18.766 45.5713 16.5852 44.9073 14.7341 43.6782C12.883 42.4491 11.4444 40.7099 10.5997 38.68C9.755 36.6501 9.54195 34.4203 9.98754 32.2719C10.4331 30.1234 11.5174 28.1524 13.1035 26.6075C14.6896 25.0625 16.7067 24.0128 18.9002 23.5906C21.0938 23.1684 23.3658 23.3928 25.4296 24.2353C27.4934 25.0778 29.2566 26.5007 30.497 28.3247C31.7373 30.1487 32.3992 32.2921 32.3993 34.4846C32.3864 37.4384 31.1789 40.2665 29.0419 42.348C26.9049 44.4295 24.0131 45.5943 21.0014 45.5865ZM21.0014 26.8868C19.4715 26.8968 17.9788 27.3508 16.7117 28.1917C15.4445 29.0326 14.4597 30.2227 13.8812 31.6118C13.3028 33.001 13.1567 34.527 13.4614 35.9975C13.7661 37.4679 14.5079 38.817 15.5933 39.8746C16.6787 40.9321 18.0591 41.6507 19.5603 41.9398C21.0616 42.2289 22.6165 42.0755 24.029 41.499C25.4416 40.9225 26.6484 39.9487 27.4973 38.7004C28.3463 37.452 28.7994 35.9851 28.7994 34.4846C28.793 32.4617 27.968 30.5241 26.5058 29.0975C25.0436 27.6709 23.0638 26.872 21.0014 26.8762V26.8868Z" fill="#30CA51"/>
<path d="M22.8013 34.4739C22.8045 34.1235 22.7015 33.78 22.5053 33.4871C22.309 33.1942 22.0285 32.9651 21.6992 32.8289C21.3699 32.6927 21.0069 32.6556 20.656 32.7222C20.3052 32.7889 19.9825 32.9562 19.7289 33.2031C19.4753 33.45 19.3022 33.7653 19.2316 34.1088C19.161 34.4524 19.1961 34.8088 19.3325 35.1327C19.4689 35.4567 19.7003 35.7336 19.9975 35.9282C20.2946 36.1229 20.644 36.2265 21.0014 36.226C21.4769 36.2274 21.9335 36.0437 22.2709 35.7152C22.6084 35.3867 22.7992 34.9403 22.8013 34.4739Z" fill="#30CA51"/>
<path d="M34.8002 46.1599C34.8028 45.8102 34.6995 45.4676 34.5034 45.1755C34.3072 44.8835 34.0271 44.6552 33.6984 44.5195C33.3698 44.3839 33.0074 44.347 32.6574 44.4136C32.3073 44.4802 31.9854 44.6473 31.7323 44.8936C31.4792 45.14 31.3064 45.4545 31.2358 45.7973C31.1653 46.1401 31.2002 46.4958 31.336 46.8191C31.4719 47.1425 31.7025 47.419 31.9988 47.6136C32.2951 47.8081 32.6437 47.912 33.0002 47.912C33.4757 47.9134 33.9323 47.7297 34.2698 47.4012C34.6073 47.0727 34.798 46.6263 34.8002 46.1599Z" fill="#30CA51"/>
<path d="M10.7998 46.1599C10.8025 45.8102 10.6991 45.4676 10.503 45.1755C10.3069 44.8835 10.0267 44.6552 9.69806 44.5195C9.3694 44.3839 9.00705 44.347 8.657 44.4136C8.30696 44.4802 7.98495 44.6473 7.73186 44.8936C7.47878 45.14 7.30601 45.4545 7.23546 45.7973C7.1649 46.1401 7.19974 46.4958 7.33557 46.8191C7.4714 47.1425 7.70208 47.419 7.99837 47.6136C8.29466 47.8081 8.6432 47.912 8.99977 47.912C9.47525 47.9134 9.93185 47.7297 10.2693 47.4012C10.6068 47.0727 10.7976 46.6263 10.7998 46.1599Z" fill="#30CA51"/>
<path d="M34.8002 8.7632C34.8028 8.41349 34.6995 8.07086 34.5034 7.77881C34.3072 7.48675 34.0271 7.25843 33.6984 7.12278C33.3698 6.98712 33.0074 6.95027 32.6574 7.01688C32.3073 7.08349 31.9854 7.25055 31.7323 7.49691C31.4792 7.74326 31.3064 8.05781 31.2358 8.40061C31.1653 8.74342 31.2002 9.09905 31.336 9.4224C31.4719 9.74576 31.7025 10.0223 31.9988 10.2168C32.2951 10.4114 32.6437 10.5153 33.0002 10.5153C33.2358 10.5163 33.4692 10.4718 33.6871 10.3843C33.9051 10.2968 34.1034 10.168 34.2706 10.0053C34.4378 9.84253 34.5706 9.64908 34.6615 9.43595C34.7523 9.22282 34.7994 8.99421 34.8002 8.7632Z" fill="#30CA51"/>
<path d="M10.7998 8.7632C10.8025 8.41349 10.6991 8.07086 10.503 7.77881C10.3069 7.48675 10.0267 7.25843 9.69806 7.12278C9.3694 6.98712 9.00705 6.95027 8.657 7.01688C8.30696 7.08349 7.98495 7.25055 7.73186 7.49691C7.47878 7.74326 7.30601 8.05781 7.23546 8.40061C7.1649 8.74342 7.19974 9.09905 7.33557 9.4224C7.4714 9.74576 7.70208 10.0223 7.99837 10.2168C8.29466 10.4114 8.6432 10.5153 8.99977 10.5153C9.23531 10.5163 9.46877 10.4718 9.68676 10.3843C9.90474 10.2968 10.1029 10.168 10.2701 10.0053C10.4373 9.84253 10.5701 9.64908 10.661 9.43595C10.7519 9.22282 10.7991 8.99421 10.7998 8.7632Z" fill="#30CA51"/>
<path d="M21.0014 19.8651C19.7073 19.8562 18.4449 19.4717 17.3733 18.7601C16.3018 18.0485 15.4691 17.0417 14.9801 15.8665C14.4912 14.6914 14.368 13.4006 14.626 12.1568C14.884 10.9131 15.5117 9.77215 16.43 8.87783C17.3482 7.9835 18.5159 7.37585 19.7858 7.1315C21.0557 6.88715 22.3709 7.01701 23.5656 7.50475C24.7603 7.9925 25.781 8.81629 26.499 9.8722C27.2171 10.9281 27.6002 12.1689 27.6003 13.4381C27.5917 15.1479 26.8922 16.7846 25.6552 17.9893C24.4182 19.1941 22.7447 19.8687 21.0014 19.8651ZM21.0014 10.5153C20.4134 10.5195 19.8399 10.6943 19.3532 11.0177C18.8664 11.3411 18.4881 11.7986 18.2661 12.3326C18.0441 12.8665 17.9882 13.453 18.1055 14.0181C18.2228 14.5831 18.5081 15.1015 18.9253 15.5077C19.3426 15.914 19.8731 16.19 20.45 16.301C21.027 16.4119 21.6246 16.3529 22.1674 16.1313C22.7102 15.9096 23.1738 15.5354 23.5 15.0556C23.8263 14.5759 24.0004 14.0121 24.0004 13.4355C23.9961 12.6586 23.678 11.9151 23.1159 11.3677C22.5538 10.8204 21.7935 10.5139 21.0014 10.5153Z" fill="#30CA51"/>
</mask>
<g mask="url(#mask0_201_1853)">
<rect x="-6" y="-10" width="54" height="74" fill="#30CA51"/>
<rect x="4" y="4" width="34" height="46" fill="#30CA51"/>
</g>
</svg>
