<svg width="61" height="56" viewBox="0 0 61 56" fill="none" xmlns="http://www.w3.org/2000/svg">
<mask id="mask0_201_1873" style="mask-type:alpha" maskUnits="userSpaceOnUse" x="0" y="0" width="61" height="56">
<path d="M56.766 32.8243C54.2486 31.2931 46.7361 30.008 40.2952 29.6533C39.9036 27.8469 39.0237 26.1845 37.7527 24.8496C37.5945 24.6831 37.429 24.5238 37.26 24.3682C38.909 21.0944 40.3259 17.7074 41.5 14.2324C44.9542 16.4159 47.6904 19.5782 49.3649 23.322C49.447 23.5074 49.5807 23.6649 49.7498 23.7754C49.919 23.8859 50.1163 23.9447 50.3179 23.9446C50.464 23.9437 50.6084 23.9129 50.7423 23.8541C50.9927 23.7402 51.1882 23.5315 51.2866 23.2732C51.3849 23.015 51.378 22.7281 51.2673 22.475C49.3455 18.1772 46.1547 14.5799 42.1293 12.1726C42.5053 10.9525 42.7205 9.68801 42.7694 8.4115C42.6903 4.93998 40.4894 0.834981 30.5063 1.00512C20.5159 0.838601 18.3258 4.93998 18.2467 8.4115C18.182 11.3654 20.8396 18.569 23.7561 24.3609C23.6986 24.4152 23.6411 24.4623 23.5871 24.5166C22.138 25.8967 21.1354 27.6841 20.7101 29.646C17.0759 29.8444 13.46 30.2993 9.88906 31.0071C10.0394 26.9046 11.3919 22.9384 13.7766 19.608C13.8652 19.4971 13.9304 19.3693 13.9684 19.2322C14.0064 19.0952 14.0163 18.9518 13.9975 18.8108C13.9788 18.6698 13.9317 18.5341 13.8593 18.4119C13.7868 18.2898 13.6904 18.1837 13.576 18.1002C13.4615 18.0167 13.3314 17.9575 13.1936 17.9261C13.0557 17.8948 12.9129 17.892 12.774 17.9179C12.635 17.9438 12.5027 17.9979 12.3851 18.0768C12.2675 18.1558 12.1671 18.258 12.09 18.3772C9.3499 22.2004 7.84909 26.7819 7.79246 31.4958C6.55525 31.7761 5.36046 32.2204 4.23938 32.8171C1.29047 34.6271 -1.15497 38.5837 3.99484 47.21C7.33934 53.2661 10.5724 55.0833 13.2515 55.0833C14.3878 55.0662 15.5012 54.7599 16.4882 54.1928C19.0595 52.7774 23.9288 46.8588 27.4531 41.4217C28.3612 41.711 29.3058 41.8683 30.2581 41.8887H30.4919C31.5192 41.8887 32.5405 41.73 33.5199 41.4181C35.5075 44.4871 37.7066 47.412 40.101 50.1711C36.4955 52.0906 32.4066 52.8941 28.3485 52.4806C28.2123 52.4666 28.0746 52.4797 27.9434 52.5192C27.8122 52.5587 27.69 52.6239 27.5838 52.711C27.4776 52.798 27.3895 52.9053 27.3245 53.0266C27.2595 53.148 27.2189 53.281 27.2049 53.4181C27.191 53.5553 27.204 53.6939 27.2433 53.8259C27.2826 53.958 27.3473 54.081 27.4338 54.1879C27.5203 54.2948 27.6269 54.3835 27.7474 54.4489C27.8679 54.5144 28.0001 54.5553 28.1364 54.5693C28.9153 54.6512 29.6979 54.6923 30.4811 54.6924C34.377 54.6857 38.2063 53.675 41.6043 51.7566C42.4645 52.6956 43.4453 53.5149 44.5208 54.1928C45.5077 54.7599 46.6212 55.0662 47.7574 55.0833C50.4366 55.0833 53.6696 53.2734 57.0141 47.21C62.146 38.5909 59.7149 34.6307 56.766 32.8243ZM24.5293 21.179C22.012 15.7491 20.2858 10.5255 20.3325 8.4658C20.4152 4.9074 23.6339 3.1083 29.9057 3.1083H30.5243C37.1809 2.99608 40.5937 4.79519 40.6836 8.46219C40.7304 10.5219 39.0042 15.7491 36.4832 21.1754C36.1692 21.8559 35.8611 22.4979 35.559 23.1012C34.026 22.2009 32.283 21.7265 30.5081 21.7265C28.7332 21.7265 26.9902 22.2009 25.4572 23.1012C25.1551 22.5003 24.8458 21.8596 24.5293 21.179ZM24.3459 42.3448C20.9367 47.2534 17.3009 51.3729 15.5064 52.3611C12.3093 54.1204 9.05114 52.0426 5.82172 46.1819L5.80375 46.1529C2.37653 40.4045 2.20751 36.5275 5.33264 34.6198C7.08041 33.5519 12.4388 32.4479 18.369 31.923C19.1134 31.8578 19.8075 31.8071 20.4908 31.7673C20.4728 34.3799 21.4675 36.8966 23.2635 38.7828C23.933 39.4868 24.6996 40.0903 25.5399 40.5746C25.1695 41.143 24.7739 41.7294 24.3459 42.3448ZM30.3265 39.8108C28.2224 39.7873 26.2138 38.9234 24.7426 37.4092C23.2713 35.895 22.4579 33.8545 22.4813 31.7366C22.5047 29.6186 23.3629 27.5968 24.8672 26.1159C26.3715 24.6349 28.3986 23.8161 30.5027 23.8397H30.6897C32.7933 23.8877 34.7917 24.7749 36.2454 26.306C37.6992 27.8372 38.4891 29.887 38.4414 32.0044C38.3937 34.1219 37.5123 36.1335 35.9912 37.5968C34.47 39.0601 32.4336 39.8552 30.3301 39.8072L30.3265 39.8108ZM55.2124 46.1928C51.9758 52.0535 48.7212 54.1313 45.5242 52.372C43.7261 51.3838 40.0974 47.2643 36.6882 42.3556C36.2603 41.7403 35.8647 41.1538 35.4943 40.5855C36.9922 39.7209 38.2429 38.4814 39.125 36.9872C40.0071 35.4929 40.4907 33.7946 40.529 32.0569C40.529 31.9628 40.529 31.8723 40.529 31.7782C41.2051 31.818 41.9099 31.8687 42.6544 31.9338C48.5846 32.4515 53.9429 33.5628 55.6907 34.6307C58.7979 36.5275 58.6396 40.4045 55.2124 46.1529V46.1928Z" fill="#30CA51" stroke="#30CA51"/>
</mask>
<g mask="url(#mask0_201_1873)">
<rect x="-12" y="-10" width="81" height="75" fill="#30CA51"/>
<ellipse cx="30.5" cy="32" rx="10.5" ry="11" fill="#30CA51"/>
<path d="M18 20C18 26.0751 17 29.5 7.5 31C1.70101 31 -11 36.5751 -11 30.5C-11 24.4249 1.70101 9 7.5 9C13.299 9 18 13.9249 18 20Z" fill="#30CA51"/>
<path d="M45.0002 26C39.4878 23.4465 39.8683 21.7505 42.5002 12.5C44.9377 7.23814 45.2505 -7.3614 50.7629 -4.80789C56.2753 -2.25439 64.933 15.7536 62.4955 21.0155C60.0581 26.2773 50.5127 28.5535 45.0002 26Z" fill="#30CA51"/>
<path d="M30.3898 49.3001C35.4574 45.9496 36.701 47.1638 43.1917 54.2611C46.3899 59.0984 58.6506 67.0306 53.5829 70.3812C48.5153 73.7317 28.6436 71.6441 25.4454 66.8068C22.2471 61.9695 25.3221 52.6506 30.3898 49.3001Z" fill="#30CA51"/>
</g>
</svg>
