<svg width="16" height="21" viewBox="0 0 16 21" fill="none" xmlns="http://www.w3.org/2000/svg">
<path d="M6.85714 1.16923C6.85714 0.523482 7.36882 0 8 0C8.63118 0 9.14286 0.523483 9.14286 1.16923V19.0974C9.14286 19.7432 8.63118 20.2667 8 20.2667C7.36882 20.2667 6.85714 19.7432 6.85714 19.0974V1.16923Z" fill="#9BA1AA"/>
<path d="M0 6.62564C0 5.97989 0.511675 5.45641 1.14286 5.45641C1.77404 5.45641 2.28571 5.97989 2.28571 6.62564V15.2C2.28571 15.8457 1.77404 16.3692 1.14286 16.3692C0.511675 16.3692 0 15.8457 0 15.2V6.62564Z" fill="#9BA1AA"/>
<path d="M13.7143 6.62564C13.7143 5.97989 14.226 5.45641 14.8571 5.45641C15.4883 5.45641 16 5.97989 16 6.62564V15.2C16 15.8457 15.4883 16.3692 14.8571 16.3692C14.226 16.3692 13.7143 15.8457 13.7143 15.2V6.62564Z" fill="#9BA1AA"/>
</svg>
