<svg width="17" height="20" viewBox="0 0 17 20" fill="none" xmlns="http://www.w3.org/2000/svg">
<path d="M11.0881 8C11.0881 7.53056 10.7075 7.15 10.2381 7.15C9.76864 7.15 9.38809 7.53056 9.38809 8H11.0881ZM9.38809 15C9.38809 15.4694 9.76864 15.85 10.2381 15.85C10.7075 15.85 11.0881 15.4694 11.0881 15H9.38809ZM7.37059 8C7.37059 7.53056 6.99003 7.15 6.52059 7.15C6.05114 7.15 5.67059 7.53056 5.67059 8H7.37059ZM5.67059 15C5.67059 15.4694 6.05114 15.85 6.52059 15.85C6.99003 15.85 7.37059 15.4694 7.37059 15H5.67059ZM2.80309 4V3.15C2.33364 3.15 1.95309 3.53056 1.95309 4H2.80309ZM13.9556 4H14.8056C14.8056 3.53056 14.425 3.15 13.9556 3.15V4ZM0.944336 3.15C0.474894 3.15 0.0943359 3.53056 0.0943359 4C0.0943359 4.46944 0.474894 4.85 0.944336 4.85V3.15ZM15.8143 4.85C16.2838 4.85 16.6643 4.46944 16.6643 4C16.6643 3.53056 16.2838 3.15 15.8143 3.15V4.85ZM12.0968 4V4.85C12.5663 4.85 12.9468 4.46944 12.9468 4H12.0968ZM4.66184 4H3.81184C3.81184 4.46944 4.19239 4.85 4.66184 4.85V4ZM9.38809 8V15H11.0881V8H9.38809ZM5.67059 8V15H7.37059V8H5.67059ZM2.80309 4.85H13.9556V3.15H2.80309V4.85ZM13.1056 4V18H14.8056V4H13.1056ZM13.0262 18.15H3.73246V19.85H13.0262V18.15ZM3.65309 18V4H1.95309V18H3.65309ZM3.73246 18.15C3.73159 18.15 3.71908 18.1512 3.69792 18.1285C3.67577 18.1046 3.65309 18.0613 3.65309 18H1.95309C1.95309 18.962 2.69218 19.85 3.73246 19.85V18.15ZM13.1056 18C13.1056 18.0613 13.0829 18.1046 13.0608 18.1285C13.0396 18.1512 13.0271 18.15 13.0262 18.15V19.85C14.0665 19.85 14.8056 18.962 14.8056 18H13.1056ZM0.944336 4.85H15.8143V3.15H0.944336V4.85ZM5.59121 1.85H11.1675V0.15H5.59121V1.85ZM11.2468 2V4H12.9468V2H11.2468ZM12.0968 3.15H4.66184V4.85H12.0968V3.15ZM5.51184 4V2H3.81184V4H5.51184ZM11.1675 1.85C11.1683 1.85 11.1808 1.84877 11.202 1.87155C11.2242 1.89538 11.2468 1.9387 11.2468 2H12.9468C12.9468 1.03798 12.2077 0.15 11.1675 0.15V1.85ZM5.59121 0.15C4.55093 0.15 3.81184 1.03798 3.81184 2H5.51184C5.51184 1.9387 5.53452 1.89538 5.55667 1.87155C5.57783 1.84877 5.59034 1.85 5.59121 1.85V0.15Z" fill="#BFC7D2"/>
</svg>
