<svg width="19" height="16" viewBox="0 0 19 16" fill="none" xmlns="http://www.w3.org/2000/svg">
<path d="M9.875 15L9.39104 15.8751C9.69219 16.0416 10.0578 16.0416 10.359 15.8751L9.875 15ZM9.875 3.76693L8.95566 4.16038C9.11312 4.52832 9.47479 4.76693 9.875 4.76693C10.2752 4.76693 10.6369 4.52832 10.7943 4.16038L9.875 3.76693ZM0.944336 5.3508C0.944336 8.4511 3.24107 11.123 5.24699 12.898C6.28244 13.8142 7.3132 14.5549 8.08288 15.0657C8.4687 15.3217 8.79137 15.5216 9.01946 15.6586C9.13356 15.7271 9.22416 15.78 9.28736 15.8163C9.31896 15.8345 9.34373 15.8485 9.36117 15.8584C9.36989 15.8633 9.37678 15.8671 9.38178 15.8699C9.38428 15.8713 9.3863 15.8725 9.38785 15.8733C9.38862 15.8737 9.38928 15.8741 9.38981 15.8744C9.39008 15.8746 9.39038 15.8747 9.39052 15.8748C9.39079 15.875 9.39104 15.8751 9.875 15C10.359 14.1249 10.3591 14.125 10.3593 14.1251C10.3593 14.1251 10.3594 14.1252 10.3595 14.1252C10.3595 14.1252 10.3595 14.1252 10.3593 14.1251C10.3589 14.1249 10.358 14.1244 10.3567 14.1237C10.3541 14.1222 10.3496 14.1197 10.3433 14.1161C10.3308 14.1091 10.311 14.0978 10.2845 14.0826C10.2315 14.0521 10.1518 14.0056 10.049 13.9439C9.84339 13.8205 9.54647 13.6366 9.18879 13.3992C8.47147 12.9232 7.51957 12.2384 6.57235 11.4002C4.61294 9.66639 2.94434 7.51372 2.94434 5.3508H0.944336ZM10.7943 3.37348C9.72993 0.886365 7.30401 -0.264136 5.10679 0.0510511C4.00305 0.20938 2.94828 0.739548 2.17186 1.65836C1.39231 2.58088 0.944336 3.83379 0.944336 5.3508H2.94434C2.94434 4.23619 3.2674 3.46057 3.69948 2.94925C4.13468 2.43423 4.73214 2.12527 5.39077 2.03079C6.71829 1.84036 8.2577 2.52954 8.95566 4.16038L10.7943 3.37348ZM16.8057 5.3508C16.8057 7.51372 15.1371 9.66639 13.1777 11.4002C12.2304 12.2384 11.2785 12.9232 10.5612 13.3992C10.2035 13.6366 9.90661 13.8205 9.701 13.9439C9.59825 14.0056 9.51847 14.0521 9.46549 14.0826C9.43901 14.0978 9.41924 14.1091 9.40667 14.1161C9.40038 14.1197 9.3959 14.1222 9.39327 14.1237C9.39196 14.1244 9.39111 14.1249 9.39074 14.1251C9.39055 14.1252 9.39048 14.1252 9.39053 14.1252C9.39056 14.1252 9.39069 14.1251 9.3907 14.1251C9.39086 14.125 9.39104 14.1249 9.875 15C10.359 15.8751 10.3592 15.875 10.3595 15.8748C10.3596 15.8747 10.3599 15.8746 10.3602 15.8744C10.3607 15.8741 10.3614 15.8737 10.3622 15.8733C10.3637 15.8725 10.3657 15.8713 10.3682 15.8699C10.3732 15.8671 10.3801 15.8633 10.3888 15.8584C10.4063 15.8485 10.431 15.8345 10.4626 15.8163C10.5258 15.78 10.6164 15.7271 10.7305 15.6586C10.9586 15.5216 11.2813 15.3217 11.6671 15.0657C12.4368 14.5549 13.4676 13.8142 14.503 12.898C16.5089 11.123 18.8057 8.4511 18.8057 5.3508H16.8057ZM10.7943 4.16038C11.4923 2.52954 13.0317 1.84036 14.3592 2.03079C15.0179 2.12527 15.6153 2.43423 16.0505 2.94925C16.4826 3.46057 16.8057 4.23619 16.8057 5.3508H18.8057C18.8057 3.83379 18.3577 2.58088 17.5781 1.65836C16.8017 0.739548 15.747 0.20938 14.6432 0.0510511C12.446 -0.264136 10.0201 0.886365 8.95566 3.37348L10.7943 4.16038Z" fill="#BFC7D2"/>
</svg>
