<svg width="24" height="18" viewBox="0 0 24 18" fill="none" xmlns="http://www.w3.org/2000/svg">
<path fill-rule="evenodd" clip-rule="evenodd" d="M9.50772 14.075H1.04624C0.490285 14.075 0.0390778 13.6238 0.0390778 13.0679C0.0390778 12.5119 0.490285 12.0607 1.04624 12.0607H9.50772C10.0637 12.0607 10.5149 12.5119 10.5149 13.0679C10.5149 13.6238 10.0637 14.075 9.50772 14.075Z" fill="#30CA51"/>
<path fill-rule="evenodd" clip-rule="evenodd" d="M21.7424 5.23728H13.2823C12.7263 5.23728 12.2751 4.78607 12.2751 4.23012C12.2751 3.67417 12.7263 3.22296 13.2823 3.22296H21.7424C22.2984 3.22296 22.7496 3.67417 22.7496 4.23012C22.7496 4.78607 22.2984 5.23728 21.7424 5.23728Z" fill="#30CA51"/>
<mask id="mask0_229_4087" style="mask-type:alpha" maskUnits="userSpaceOnUse" x="0" y="0" width="9" height="9">
<path fill-rule="evenodd" clip-rule="evenodd" d="M0 0H8.3605V8.31457H0V0Z" fill="white"/>
</mask>
<g mask="url(#mask0_229_4087)">
<path fill-rule="evenodd" clip-rule="evenodd" d="M4.18013 2.01373C2.98631 2.01373 2.01406 2.97523 2.01406 4.15831C2.01406 5.34004 2.98631 6.3002 4.18013 6.3002C5.37529 6.3002 6.34619 5.34004 6.34619 4.15831C6.34619 2.97523 5.37529 2.01373 4.18013 2.01373ZM4.18018 8.31468C1.8758 8.31468 -0.000198364 6.45076 -0.000198364 4.15847C-0.000198364 1.86617 1.8758 -0.000427246 4.18018 -0.000427246C6.48591 -0.000427246 8.36057 1.86617 8.36057 4.15847C8.36057 6.45076 6.48591 8.31468 4.18018 8.31468Z" fill="#30CA51"/>
</g>
<path fill-rule="evenodd" clip-rule="evenodd" d="M19.3209 10.8726C18.1258 10.8726 17.1535 11.8341 17.1535 13.0159C17.1535 14.1989 18.1258 15.1591 19.3209 15.1591C20.5147 15.1591 21.4856 14.1989 21.4856 13.0159C21.4856 11.8341 20.5147 10.8726 19.3209 10.8726ZM19.321 17.1735C17.0152 17.1735 15.1392 15.3082 15.1392 13.016C15.1392 10.7237 17.0152 8.8584 19.321 8.8584C21.6253 8.8584 23.5 10.7237 23.5 13.016C23.5 15.3082 21.6253 17.1735 19.321 17.1735Z" fill="#30CA51"/>
</svg>
