<svg width="38" height="63" viewBox="0 0 38 63" fill="none" xmlns="http://www.w3.org/2000/svg">
<mask id="mask0_201_1868" style="mask-type:alpha" maskUnits="userSpaceOnUse" x="0" y="0" width="38" height="63">
<path d="M33.0697 0H4.93034C3.62274 0 2.36866 0.521713 1.44405 1.45035C0.519427 2.37898 0 3.63847 0 4.95176V57.381C0 58.6943 0.519427 59.9538 1.44405 60.8824C2.36866 61.8111 3.62274 62.3328 4.93034 62.3328H33.0697C34.3773 62.3328 35.6313 61.8111 36.5559 60.8824C37.4805 59.9538 38 58.6943 38 57.381V4.95176C38 3.63847 37.4805 2.37898 36.5559 1.45035C35.6313 0.521713 34.3773 0 33.0697 0ZM34.5488 46.1405H3.45124V12.0823H34.5586L34.5488 46.1405ZM4.92047 3.46623H33.0697C33.4604 3.47136 33.8336 3.62952 34.1099 3.90701C34.3862 4.18449 34.5437 4.55937 34.5488 4.95176V8.61608H3.45124V4.95176C3.45635 4.55937 3.61382 4.18449 3.89011 3.90701C4.1664 3.62952 4.53965 3.47136 4.93034 3.46623H4.92047ZM33.0697 58.8665H4.93034C4.53965 58.8614 4.1664 58.7032 3.89011 58.4258C3.61382 58.1483 3.45635 57.7734 3.45124 57.381V49.5869H34.5586V57.3612C34.5586 57.7587 34.4021 58.1401 34.1231 58.4221C33.8441 58.7042 33.4655 58.8639 33.0697 58.8665Z" fill="#30CA51"/>
<path d="M19.0049 56.252C20.2303 56.252 21.2236 55.2544 21.2236 54.0237C21.2236 52.7931 20.2303 51.7954 19.0049 51.7954C17.7796 51.7954 16.7863 52.7931 16.7863 54.0237C16.7863 55.2544 17.7796 56.252 19.0049 56.252Z" fill="#30CA51"/>
</mask>
<g mask="url(#mask0_201_1868)">
<rect x="-22.3535" y="-13.4116" width="82.7059" height="88.2941" fill="#C5C5C5"/>
<rect x="-13.4111" y="-7.82378" width="60.3529" height="89.4118" fill="#30CA51"/>
<rect x="8.94141" y="51.4116" width="19" height="5.58824" fill="#30CA51"/>
</g>
</svg>
