<svg width="14" height="17" viewBox="0 0 14 17" fill="none" xmlns="http://www.w3.org/2000/svg">
<path fill-rule="evenodd" clip-rule="evenodd" d="M3.53162 0.936771C5.71648 -0.332726 8.40203 -0.310537 10.5664 0.994894C12.7095 2.32691 14.012 4.70418 13.9998 7.26144C13.95 9.80194 12.5533 12.19 10.8075 14.0361C9.79983 15.1064 8.67261 16.0528 7.44884 16.856C7.32281 16.9289 7.18475 16.9777 7.04148 17C6.9036 16.9941 6.76932 16.9534 6.65075 16.8814C4.78243 15.6746 3.14333 14.134 1.81233 12.334C0.698588 10.8314 0.0658345 9.01601 1.1636e-06 7.13442C-0.00144584 4.57224 1.34676 2.20627 3.53162 0.936771ZM4.79416 8.1949C5.16168 9.10096 6.02917 9.69197 6.9916 9.69197C7.6221 9.6965 8.22818 9.44395 8.6748 8.9906C9.12143 8.53725 9.37148 7.92076 9.36924 7.2785C9.37261 6.29816 8.79545 5.41244 7.90726 5.0349C7.01906 4.65736 5.99504 4.86247 5.31331 5.55447C4.63158 6.24647 4.42664 7.28885 4.79416 8.1949Z" fill="#BFC7D2"/>
</svg>
