<svg width="67" height="54" viewBox="0 0 67 54" fill="none" xmlns="http://www.w3.org/2000/svg">
<mask id="mask0_201_1857" style="mask-type:alpha" maskUnits="userSpaceOnUse" x="0" y="0" width="67" height="54">
<path d="M51.3049 44.0202C51.3049 44.4284 51.4259 44.8276 51.6528 45.167C51.8796 45.5065 52.202 45.7711 52.5792 45.9273C52.9564 46.0836 53.3715 46.1245 53.7719 46.0448C54.1723 45.9652 54.5401 45.7686 54.8288 45.4799C55.1175 45.1912 55.3142 44.8233 55.3938 44.4229C55.4735 44.0225 55.4326 43.6074 55.2763 43.2302C55.1201 42.853 54.8555 42.5306 54.516 42.3038C54.1766 42.0769 53.7775 41.9559 53.3692 41.9559C52.8217 41.9559 52.2966 42.1734 51.9095 42.5605C51.5223 42.9476 51.3049 43.4727 51.3049 44.0202Z" fill="#09D468"/>
<path d="M33.3775 53.672H15.3493C14.9234 53.672 14.5151 53.5028 14.214 53.2017C13.9129 52.9006 13.7437 52.4922 13.7437 52.0664C13.7437 51.6406 13.9129 51.2322 14.214 50.9311C14.5151 50.6299 14.9234 50.4608 15.3493 50.4608H33.3775C33.8033 50.4608 34.2117 50.6299 34.5128 50.9311C34.814 51.2322 34.9831 51.6406 34.9831 52.0664C34.9831 52.4922 34.814 52.9006 34.5128 53.2017C34.2117 53.5028 33.8033 53.672 33.3775 53.672Z" fill="#09D468"/>
<path d="M60.2777 0H46.4515C44.7482 0 43.1146 0.676641 41.9102 1.88105C40.7058 3.08546 40.0292 4.719 40.0292 6.4223V8.9912H43.2403V6.4223C43.2403 5.57065 43.5786 4.75387 44.1809 4.15167C44.7831 3.54946 45.5998 3.21114 46.4515 3.21114H60.2777C61.1294 3.21114 61.9461 3.54946 62.5483 4.15167C63.1506 4.75387 63.4889 5.57065 63.4889 6.4223V47.2588C63.4889 48.1105 63.1506 48.9272 62.5483 49.5295C61.9461 50.1317 61.1294 50.47 60.2777 50.47H40.8916C41.4516 51.4511 42.2605 52.2672 43.2367 52.8358C44.2129 53.4044 45.3217 53.7055 46.4515 53.7086H60.2777C61.981 53.7086 63.6145 53.032 64.8189 51.8276C66.0234 50.6232 66.7 48.9896 66.7 47.2863V6.4223C66.7 4.719 66.0234 3.08546 64.8189 1.88105C63.6145 0.676641 61.981 0 60.2777 0Z" fill="#09D468"/>
<path d="M57.5345 10.1472H49.2039C48.778 10.1472 48.3697 9.97805 48.0686 9.67695C47.7675 9.37585 47.5983 8.96747 47.5983 8.54165C47.5983 8.11582 47.7675 7.70742 48.0686 7.40632C48.3697 7.10522 48.778 6.93608 49.2039 6.93608H57.5345C57.9603 6.93608 58.3687 7.10522 58.6698 7.40632C58.9709 7.70742 59.1401 8.11582 59.1401 8.54165C59.1401 8.96747 58.9709 9.37585 58.6698 9.67695C58.3687 9.97805 57.9603 10.1472 57.5345 10.1472Z" fill="#09D468"/>
<path d="M42.2953 12.6611H6.42228C4.71899 12.6611 3.08546 13.3377 1.88105 14.5421C0.67664 15.7465 0 17.3801 0 19.0834V40.3687C0 42.0719 0.67664 43.7055 1.88105 44.9099C3.08546 46.1143 4.71899 46.7909 6.42228 46.7909H42.2953C43.9986 46.7909 45.6321 46.1143 46.8365 44.9099C48.041 43.7055 48.7176 42.0719 48.7176 40.3687V19.0834C48.7176 17.3801 48.041 15.7465 46.8365 14.5421C45.6321 13.3377 43.9986 12.6611 42.2953 12.6611ZM45.5065 40.3687C45.5065 41.2203 45.1682 42.037 44.5659 42.6393C43.9637 43.2415 43.147 43.5798 42.2953 43.5798H6.42228C5.57063 43.5798 4.75389 43.2415 4.15168 42.6393C3.54948 42.037 3.21114 41.2203 3.21114 40.3687V19.0834C3.21114 18.2317 3.54948 17.4149 4.15168 16.8127C4.75389 16.2105 5.57063 15.8722 6.42228 15.8722H42.2953C43.147 15.8722 43.9637 16.2105 44.5659 16.8127C45.1682 17.4149 45.5065 18.2317 45.5065 19.0834V40.3687Z" fill="#09D468"/>
</mask>
<g mask="url(#mask0_201_1857)">
<rect x="-14" y="-15" width="95" height="84" fill="#30CA51"/>
<path d="M36 -47H77V12H36V-47Z" fill="#30CA51"/>
<path d="M53 -17H94V42H53V-17Z" fill="#30CA51"/>
<path d="M50 3H91V62H50V3Z" fill="#30CA51"/>
<path d="M39 49H80V108H39V49Z" fill="#30CA51"/>
<rect x="47" y="6" width="14" height="6" fill="#30CA51"/>
<rect x="47" y="41" width="14" height="6" fill="#30CA51"/>
</g>
</svg>
