<svg width="63" height="50" viewBox="0 0 63 50" fill="none" xmlns="http://www.w3.org/2000/svg">
<mask id="mask0_201_1842" style="mask-type:alpha" maskUnits="userSpaceOnUse" x="0" y="0" width="63" height="50">
<mask id="path-1-inside-1_201_1842" fill="white">
<path d="M7.39928 16.741C7.39929 17.1731 7.52666 17.5954 7.76528 17.9545C8.00391 18.3136 8.34306 18.5933 8.73973 18.7582C9.1364 18.9231 9.57273 18.9657 9.99349 18.8807C10.4143 18.7957 10.8005 18.5869 11.1033 18.2807C11.4061 17.9745 11.6118 17.5848 11.6943 17.1608C11.7769 16.7368 11.7326 16.2977 11.567 15.8991C11.4015 15.5005 11.1221 15.1604 10.7644 14.9217C10.4066 14.6831 9.98655 14.5568 9.5574 14.5587C9.27318 14.5587 8.99176 14.6152 8.72929 14.725C8.46682 14.8348 8.22849 14.9957 8.02796 15.1985C7.82743 15.4012 7.66868 15.6419 7.56079 15.9066C7.4529 16.1713 7.39801 16.4549 7.39928 16.741Z"/>
<path d="M58.1828 7.71096H52.4695C52.4302 7.71116 52.3912 7.70356 52.3549 7.68858C52.3185 7.6736 52.2854 7.65154 52.2575 7.62366L44.8775 0H27.0344L19.2497 7.61397C19.2022 7.65874 19.1411 7.68608 19.0763 7.69156H4.81725C3.53964 7.69156 2.31433 8.20251 1.41092 9.112C0.507512 10.0215 0 11.255 0 12.5412V40.388C0 41.6742 0.507512 42.9077 1.41092 43.8172C2.31433 44.7267 3.53964 45.2376 4.81725 45.2376H19.0763C18.1695 44.1868 17.3661 43.0499 16.6773 41.8429H4.81725C4.43475 41.8403 4.06862 41.6862 3.79814 41.4139C3.52767 41.1416 3.3746 40.7731 3.37208 40.388V12.5606C3.3746 12.1755 3.52767 11.807 3.79814 11.5347C4.06862 11.2624 4.43475 11.1083 4.81725 11.1057H19.0474C20.0068 11.07 20.9137 10.6554 21.5716 9.9515L28.3158 3.36566C28.3411 3.33711 28.3724 3.31449 28.4073 3.29941C28.4423 3.28433 28.4801 3.27714 28.5181 3.27837H43.4034C43.4414 3.27714 43.4793 3.28433 43.5142 3.29941C43.5492 3.31449 43.5804 3.33711 43.6057 3.36566L49.9453 9.9418C50.6042 10.643 51.5112 11.0542 52.4695 11.0863H58.1828C58.5645 11.0913 58.9292 11.2462 59.1991 11.518C59.4691 11.7898 59.6229 12.1569 59.6279 12.5412V40.388C59.6229 40.7723 59.4691 41.1394 59.1991 41.4112C58.9292 41.683 58.5645 41.8378 58.1828 41.8429H54.4735C53.7814 43.0501 52.9747 44.187 52.0648 45.2376H58.1828C59.4604 45.2376 60.6856 44.7267 61.5891 43.8172C62.4925 42.9077 63 41.6742 63 40.388V12.5606C63 11.2744 62.4925 10.0409 61.5891 9.13139C60.6856 8.2219 59.4604 7.71096 58.1828 7.71096Z"/>
<path d="M7.33184 5.07274H12.3707C12.8179 5.07274 13.2467 4.89391 13.5629 4.57559C13.8791 4.25727 14.0567 3.82554 14.0567 3.37536C14.0567 2.92519 13.8791 2.49345 13.5629 2.17513C13.2467 1.85681 12.8179 1.67798 12.3707 1.67798H7.33184C6.88468 1.67798 6.45584 1.85681 6.13964 2.17513C5.82345 2.49345 5.6458 2.92519 5.6458 3.37536C5.6458 3.82554 5.82345 4.25727 6.13964 4.57559C6.45584 4.89391 6.88468 5.07274 7.33184 5.07274Z"/>
<path d="M35.5706 11.7459C31.8129 11.742 28.1385 12.8601 25.0119 14.9586C21.8854 17.0571 19.4472 20.0419 18.0057 23.5354C16.5642 27.0289 16.184 30.8744 16.9134 34.5854C17.6427 38.2964 19.4488 41.7064 22.1032 44.3841C24.7576 47.0618 28.1411 48.8869 31.8259 49.6287C35.5106 50.3705 39.3311 49.9956 42.8042 48.5515C46.2773 47.1073 49.2471 44.6588 51.3379 41.5155C53.4287 38.3722 54.5467 34.6753 54.5506 30.8923C54.5531 25.8203 52.5555 20.9547 48.9966 17.3646C45.4377 13.7745 40.6087 11.7536 35.5706 11.7459ZM35.5706 46.6052C32.4782 46.6091 29.4542 45.6892 26.8813 43.962C24.3085 42.2347 22.3025 39.7779 21.1174 36.9024C19.9322 34.0269 19.6211 30.8621 20.2235 27.8085C20.8259 24.7549 22.3146 21.9499 24.5012 19.7485C26.6879 17.5472 29.4742 16.0484 32.5073 15.442C35.5405 14.8356 38.6842 15.1488 41.5405 16.3419C44.3968 17.5351 46.8372 19.5545 48.5528 22.1446C50.2685 24.7348 51.1823 27.7791 51.1785 30.8923C51.1683 35.0565 49.5206 39.0472 46.5958 41.9917C43.671 44.9362 39.7069 46.595 35.5706 46.6052Z"/>
<path d="M35.5706 18.3802C33.1162 18.3764 30.7159 19.1053 28.6731 20.4748C26.6303 21.8444 25.0368 23.793 24.094 26.0743C23.1513 28.3555 22.9017 30.867 23.3768 33.2911C23.8518 35.7152 25.0303 37.943 26.7631 39.6929C28.4958 41.4427 30.7051 42.636 33.1115 43.1218C35.5179 43.6076 38.0134 43.3641 40.2823 42.4221C42.5513 41.4801 44.4918 39.8819 45.8585 37.8296C47.2252 35.7774 47.9567 33.3632 47.9605 30.8923C47.9643 29.2514 47.6467 27.6258 47.0259 26.1086C46.4051 24.5914 45.4932 23.2122 44.3424 22.0501C43.1916 20.888 41.8246 19.9657 40.3194 19.336C38.8143 18.7063 37.2005 18.3815 35.5706 18.3802ZM35.5706 39.9612C33.7832 39.9554 32.0377 39.4162 30.5547 38.4117C29.0717 37.4073 27.918 35.9826 27.2392 34.318C26.5605 32.6534 26.3874 30.8235 26.7417 29.0598C27.096 27.2961 27.9618 25.6778 29.2297 24.4095C30.4976 23.1412 32.1106 22.2799 33.8648 21.9345C35.6189 21.5891 37.4354 21.7751 39.0846 22.469C40.7337 23.1629 42.1414 24.3336 43.1297 25.8329C44.1179 27.3323 44.6423 29.0929 44.6366 30.8923C44.6328 32.0871 44.3953 33.2694 43.9377 34.3718C43.48 35.4741 42.8112 36.4749 41.9693 37.3171C41.1274 38.1592 40.129 38.8261 39.0311 39.2798C37.9332 39.7335 36.7573 39.965 35.5706 39.9612Z"/>
</mask>
<path d="M7.39928 16.741C7.39929 17.1731 7.52666 17.5954 7.76528 17.9545C8.00391 18.3136 8.34306 18.5933 8.73973 18.7582C9.1364 18.9231 9.57273 18.9657 9.99349 18.8807C10.4143 18.7957 10.8005 18.5869 11.1033 18.2807C11.4061 17.9745 11.6118 17.5848 11.6943 17.1608C11.7769 16.7368 11.7326 16.2977 11.567 15.8991C11.4015 15.5005 11.1221 15.1604 10.7644 14.9217C10.4066 14.6831 9.98655 14.5568 9.5574 14.5587C9.27318 14.5587 8.99176 14.6152 8.72929 14.725C8.46682 14.8348 8.22849 14.9957 8.02796 15.1985C7.82743 15.4012 7.66868 15.6419 7.56079 15.9066C7.4529 16.1713 7.39801 16.4549 7.39928 16.741Z" fill="#30CA51"/>
<path d="M58.1828 7.71096H52.4695C52.4302 7.71116 52.3912 7.70356 52.3549 7.68858C52.3185 7.6736 52.2854 7.65154 52.2575 7.62366L44.8775 0H27.0344L19.2497 7.61397C19.2022 7.65874 19.1411 7.68608 19.0763 7.69156H4.81725C3.53964 7.69156 2.31433 8.20251 1.41092 9.112C0.507512 10.0215 0 11.255 0 12.5412V40.388C0 41.6742 0.507512 42.9077 1.41092 43.8172C2.31433 44.7267 3.53964 45.2376 4.81725 45.2376H19.0763C18.1695 44.1868 17.3661 43.0499 16.6773 41.8429H4.81725C4.43475 41.8403 4.06862 41.6862 3.79814 41.4139C3.52767 41.1416 3.3746 40.7731 3.37208 40.388V12.5606C3.3746 12.1755 3.52767 11.807 3.79814 11.5347C4.06862 11.2624 4.43475 11.1083 4.81725 11.1057H19.0474C20.0068 11.07 20.9137 10.6554 21.5716 9.9515L28.3158 3.36566C28.3411 3.33711 28.3724 3.31449 28.4073 3.29941C28.4423 3.28433 28.4801 3.27714 28.5181 3.27837H43.4034C43.4414 3.27714 43.4793 3.28433 43.5142 3.29941C43.5492 3.31449 43.5804 3.33711 43.6057 3.36566L49.9453 9.9418C50.6042 10.643 51.5112 11.0542 52.4695 11.0863H58.1828C58.5645 11.0913 58.9292 11.2462 59.1991 11.518C59.4691 11.7898 59.6229 12.1569 59.6279 12.5412V40.388C59.6229 40.7723 59.4691 41.1394 59.1991 41.4112C58.9292 41.683 58.5645 41.8378 58.1828 41.8429H54.4735C53.7814 43.0501 52.9747 44.187 52.0648 45.2376H58.1828C59.4604 45.2376 60.6856 44.7267 61.5891 43.8172C62.4925 42.9077 63 41.6742 63 40.388V12.5606C63 11.2744 62.4925 10.0409 61.5891 9.13139C60.6856 8.2219 59.4604 7.71096 58.1828 7.71096Z" fill="#30CA51"/>
<path d="M7.33184 5.07274H12.3707C12.8179 5.07274 13.2467 4.89391 13.5629 4.57559C13.8791 4.25727 14.0567 3.82554 14.0567 3.37536C14.0567 2.92519 13.8791 2.49345 13.5629 2.17513C13.2467 1.85681 12.8179 1.67798 12.3707 1.67798H7.33184C6.88468 1.67798 6.45584 1.85681 6.13964 2.17513C5.82345 2.49345 5.6458 2.92519 5.6458 3.37536C5.6458 3.82554 5.82345 4.25727 6.13964 4.57559C6.45584 4.89391 6.88468 5.07274 7.33184 5.07274Z" fill="#30CA51"/>
<path d="M35.5706 11.7459C31.8129 11.742 28.1385 12.8601 25.0119 14.9586C21.8854 17.0571 19.4472 20.0419 18.0057 23.5354C16.5642 27.0289 16.184 30.8744 16.9134 34.5854C17.6427 38.2964 19.4488 41.7064 22.1032 44.3841C24.7576 47.0618 28.1411 48.8869 31.8259 49.6287C35.5106 50.3705 39.3311 49.9956 42.8042 48.5515C46.2773 47.1073 49.2471 44.6588 51.3379 41.5155C53.4287 38.3722 54.5467 34.6753 54.5506 30.8923C54.5531 25.8203 52.5555 20.9547 48.9966 17.3646C45.4377 13.7745 40.6087 11.7536 35.5706 11.7459ZM35.5706 46.6052C32.4782 46.6091 29.4542 45.6892 26.8813 43.962C24.3085 42.2347 22.3025 39.7779 21.1174 36.9024C19.9322 34.0269 19.6211 30.8621 20.2235 27.8085C20.8259 24.7549 22.3146 21.9499 24.5012 19.7485C26.6879 17.5472 29.4742 16.0484 32.5073 15.442C35.5405 14.8356 38.6842 15.1488 41.5405 16.3419C44.3968 17.5351 46.8372 19.5545 48.5528 22.1446C50.2685 24.7348 51.1823 27.7791 51.1785 30.8923C51.1683 35.0565 49.5206 39.0472 46.5958 41.9917C43.671 44.9362 39.7069 46.595 35.5706 46.6052Z" fill="#30CA51"/>
<path d="M35.5706 18.3802C33.1162 18.3764 30.7159 19.1053 28.6731 20.4748C26.6303 21.8444 25.0368 23.793 24.094 26.0743C23.1513 28.3555 22.9017 30.867 23.3768 33.2911C23.8518 35.7152 25.0303 37.943 26.7631 39.6929C28.4958 41.4427 30.7051 42.636 33.1115 43.1218C35.5179 43.6076 38.0134 43.3641 40.2823 42.4221C42.5513 41.4801 44.4918 39.8819 45.8585 37.8296C47.2252 35.7774 47.9567 33.3632 47.9605 30.8923C47.9643 29.2514 47.6467 27.6258 47.0259 26.1086C46.4051 24.5914 45.4932 23.2122 44.3424 22.0501C43.1916 20.888 41.8246 19.9657 40.3194 19.336C38.8143 18.7063 37.2005 18.3815 35.5706 18.3802ZM35.5706 39.9612C33.7832 39.9554 32.0377 39.4162 30.5547 38.4117C29.0717 37.4073 27.918 35.9826 27.2392 34.318C26.5605 32.6534 26.3874 30.8235 26.7417 29.0598C27.096 27.2961 27.9618 25.6778 29.2297 24.4095C30.4976 23.1412 32.1106 22.2799 33.8648 21.9345C35.6189 21.5891 37.4354 21.7751 39.0846 22.469C40.7337 23.1629 42.1414 24.3336 43.1297 25.8329C44.1179 27.3323 44.6423 29.0929 44.6366 30.8923C44.6328 32.0871 44.3953 33.2694 43.9377 34.3718C43.48 35.4741 42.8112 36.4749 41.9693 37.3171C41.1274 38.1592 40.129 38.8261 39.0311 39.2798C37.9332 39.7335 36.7573 39.965 35.5706 39.9612Z" fill="#30CA51"/>
<path d="M7.39928 16.741C7.39929 17.1731 7.52666 17.5954 7.76528 17.9545C8.00391 18.3136 8.34306 18.5933 8.73973 18.7582C9.1364 18.9231 9.57273 18.9657 9.99349 18.8807C10.4143 18.7957 10.8005 18.5869 11.1033 18.2807C11.4061 17.9745 11.6118 17.5848 11.6943 17.1608C11.7769 16.7368 11.7326 16.2977 11.567 15.8991C11.4015 15.5005 11.1221 15.1604 10.7644 14.9217C10.4066 14.6831 9.98655 14.5568 9.5574 14.5587C9.27318 14.5587 8.99176 14.6152 8.72929 14.725C8.46682 14.8348 8.22849 14.9957 8.02796 15.1985C7.82743 15.4012 7.66868 15.6419 7.56079 15.9066C7.4529 16.1713 7.39801 16.4549 7.39928 16.741Z" stroke="white" stroke-width="0.4" mask="url(#path-1-inside-1_201_1842)"/>
<path d="M58.1828 7.71096H52.4695C52.4302 7.71116 52.3912 7.70356 52.3549 7.68858C52.3185 7.6736 52.2854 7.65154 52.2575 7.62366L44.8775 0H27.0344L19.2497 7.61397C19.2022 7.65874 19.1411 7.68608 19.0763 7.69156H4.81725C3.53964 7.69156 2.31433 8.20251 1.41092 9.112C0.507512 10.0215 0 11.255 0 12.5412V40.388C0 41.6742 0.507512 42.9077 1.41092 43.8172C2.31433 44.7267 3.53964 45.2376 4.81725 45.2376H19.0763C18.1695 44.1868 17.3661 43.0499 16.6773 41.8429H4.81725C4.43475 41.8403 4.06862 41.6862 3.79814 41.4139C3.52767 41.1416 3.3746 40.7731 3.37208 40.388V12.5606C3.3746 12.1755 3.52767 11.807 3.79814 11.5347C4.06862 11.2624 4.43475 11.1083 4.81725 11.1057H19.0474C20.0068 11.07 20.9137 10.6554 21.5716 9.9515L28.3158 3.36566C28.3411 3.33711 28.3724 3.31449 28.4073 3.29941C28.4423 3.28433 28.4801 3.27714 28.5181 3.27837H43.4034C43.4414 3.27714 43.4793 3.28433 43.5142 3.29941C43.5492 3.31449 43.5804 3.33711 43.6057 3.36566L49.9453 9.9418C50.6042 10.643 51.5112 11.0542 52.4695 11.0863H58.1828C58.5645 11.0913 58.9292 11.2462 59.1991 11.518C59.4691 11.7898 59.6229 12.1569 59.6279 12.5412V40.388C59.6229 40.7723 59.4691 41.1394 59.1991 41.4112C58.9292 41.683 58.5645 41.8378 58.1828 41.8429H54.4735C53.7814 43.0501 52.9747 44.187 52.0648 45.2376H58.1828C59.4604 45.2376 60.6856 44.7267 61.5891 43.8172C62.4925 42.9077 63 41.6742 63 40.388V12.5606C63 11.2744 62.4925 10.0409 61.5891 9.13139C60.6856 8.2219 59.4604 7.71096 58.1828 7.71096Z" stroke="white" stroke-width="0.4" mask="url(#path-1-inside-1_201_1842)"/>
<path d="M7.33184 5.07274H12.3707C12.8179 5.07274 13.2467 4.89391 13.5629 4.57559C13.8791 4.25727 14.0567 3.82554 14.0567 3.37536C14.0567 2.92519 13.8791 2.49345 13.5629 2.17513C13.2467 1.85681 12.8179 1.67798 12.3707 1.67798H7.33184C6.88468 1.67798 6.45584 1.85681 6.13964 2.17513C5.82345 2.49345 5.6458 2.92519 5.6458 3.37536C5.6458 3.82554 5.82345 4.25727 6.13964 4.57559C6.45584 4.89391 6.88468 5.07274 7.33184 5.07274Z" stroke="white" stroke-width="0.4" mask="url(#path-1-inside-1_201_1842)"/>
<path d="M35.5706 11.7459C31.8129 11.742 28.1385 12.8601 25.0119 14.9586C21.8854 17.0571 19.4472 20.0419 18.0057 23.5354C16.5642 27.0289 16.184 30.8744 16.9134 34.5854C17.6427 38.2964 19.4488 41.7064 22.1032 44.3841C24.7576 47.0618 28.1411 48.8869 31.8259 49.6287C35.5106 50.3705 39.3311 49.9956 42.8042 48.5515C46.2773 47.1073 49.2471 44.6588 51.3379 41.5155C53.4287 38.3722 54.5467 34.6753 54.5506 30.8923C54.5531 25.8203 52.5555 20.9547 48.9966 17.3646C45.4377 13.7745 40.6087 11.7536 35.5706 11.7459ZM35.5706 46.6052C32.4782 46.6091 29.4542 45.6892 26.8813 43.962C24.3085 42.2347 22.3025 39.7779 21.1174 36.9024C19.9322 34.0269 19.6211 30.8621 20.2235 27.8085C20.8259 24.7549 22.3146 21.9499 24.5012 19.7485C26.6879 17.5472 29.4742 16.0484 32.5073 15.442C35.5405 14.8356 38.6842 15.1488 41.5405 16.3419C44.3968 17.5351 46.8372 19.5545 48.5528 22.1446C50.2685 24.7348 51.1823 27.7791 51.1785 30.8923C51.1683 35.0565 49.5206 39.0472 46.5958 41.9917C43.671 44.9362 39.7069 46.595 35.5706 46.6052Z" stroke="white" stroke-width="0.4" mask="url(#path-1-inside-1_201_1842)"/>
<path d="M35.5706 18.3802C33.1162 18.3764 30.7159 19.1053 28.6731 20.4748C26.6303 21.8444 25.0368 23.793 24.094 26.0743C23.1513 28.3555 22.9017 30.867 23.3768 33.2911C23.8518 35.7152 25.0303 37.943 26.7631 39.6929C28.4958 41.4427 30.7051 42.636 33.1115 43.1218C35.5179 43.6076 38.0134 43.3641 40.2823 42.4221C42.5513 41.4801 44.4918 39.8819 45.8585 37.8296C47.2252 35.7774 47.9567 33.3632 47.9605 30.8923C47.9643 29.2514 47.6467 27.6258 47.0259 26.1086C46.4051 24.5914 45.4932 23.2122 44.3424 22.0501C43.1916 20.888 41.8246 19.9657 40.3194 19.336C38.8143 18.7063 37.2005 18.3815 35.5706 18.3802ZM35.5706 39.9612C33.7832 39.9554 32.0377 39.4162 30.5547 38.4117C29.0717 37.4073 27.918 35.9826 27.2392 34.318C26.5605 32.6534 26.3874 30.8235 26.7417 29.0598C27.096 27.2961 27.9618 25.6778 29.2297 24.4095C30.4976 23.1412 32.1106 22.2799 33.8648 21.9345C35.6189 21.5891 37.4354 21.7751 39.0846 22.469C40.7337 23.1629 42.1414 24.3336 43.1297 25.8329C44.1179 27.3323 44.6423 29.0929 44.6366 30.8923C44.6328 32.0871 44.3953 33.2694 43.9377 34.3718C43.48 35.4741 42.8112 36.4749 41.9693 37.3171C41.1274 38.1592 40.129 38.8261 39.0311 39.2798C37.9332 39.7335 36.7573 39.965 35.5706 39.9612Z" stroke="white" stroke-width="0.4" mask="url(#path-1-inside-1_201_1842)"/>
</mask>
<g mask="url(#mask0_201_1842)">
<rect x="-14" y="-15" width="95" height="84" fill="#30CA51"/>
<rect x="-54" y="-28" width="125" height="88" fill="#30CA51"/>
<circle cx="36" cy="31" r="20" fill="#30CA51"/>
<circle cx="10.5" cy="18.5" r="6.5" fill="#30CA51"/>
<ellipse cx="9.5" cy="3" rx="6.5" ry="4" fill="#30CA51"/>
</g>
</svg>
