<svg width="18" height="11" viewBox="0 0 18 11" fill="none" xmlns="http://www.w3.org/2000/svg">
<path d="M17.928 10.2445C17.8367 10.4643 17.662 10.639 17.4422 10.7303C17.334 10.7764 17.2178 10.8009 17.1003 10.8023H12.6016C12.3629 10.8023 12.1341 10.7075 11.9654 10.5388C11.7966 10.37 11.7018 10.1412 11.7018 9.90257C11.7018 9.66394 11.7966 9.43509 11.9654 9.26636C12.1341 9.09762 12.3629 9.00283 12.6016 9.00283H14.9319L9.90235 3.97329L6.94221 6.94243C6.85856 7.02676 6.75905 7.09369 6.64941 7.13937C6.53977 7.18505 6.42217 7.20857 6.30339 7.20857C6.18461 7.20857 6.06701 7.18505 5.95737 7.13937C5.84773 7.09369 5.74822 7.02676 5.66458 6.94243L0.266141 1.54399C0.18181 1.46035 0.114875 1.36084 0.0691962 1.25119C0.0235176 1.14155 0 1.02395 0 0.905176C0 0.7864 0.0235176 0.668798 0.0691962 0.559157C0.114875 0.449515 0.18181 0.350004 0.266141 0.266362C0.349784 0.182031 0.449296 0.115094 0.558938 0.0694151C0.668579 0.023737 0.78618 0.000220299 0.904956 0.000220299C1.02373 0.000220299 1.14133 0.023737 1.25097 0.0694151C1.36062 0.115094 1.46013 0.182031 1.54377 0.266362L6.30339 5.03498L9.26353 2.06584C9.34717 1.98151 9.44669 1.91457 9.55633 1.86889C9.66597 1.82322 9.78357 1.7997 9.90235 1.7997C10.0211 1.7997 10.1387 1.82322 10.2484 1.86889C10.358 1.91457 10.4575 1.98151 10.5412 2.06584L16.2005 7.7342V5.40387C16.2005 5.16525 16.2953 4.93639 16.464 4.76766C16.6328 4.59893 16.8616 4.50413 17.1003 4.50413C17.3389 4.50413 17.5677 4.59893 17.7365 4.76766C17.9052 4.93639 18 5.16525 18 5.40387V9.90257C17.9986 10.0201 17.9741 10.1363 17.928 10.2445Z" fill="#ED7272"/>
</svg>
