<svg width="14" height="14" viewBox="0 0 14 14" fill="none" xmlns="http://www.w3.org/2000/svg">
<circle opacity="0.55" cx="7" cy="7" r="7" fill="#BFC7D2"/>
<path d="M4.29004 5.37109H5.55225C5.59521 4.70508 6.04102 4.28076 6.73389 4.28076C7.41064 4.28076 7.86182 4.69434 7.86182 5.26367C7.86182 5.79541 7.63623 6.08545 6.97021 6.48828C6.229 6.92334 5.91748 7.40674 5.96582 8.20166L5.97119 8.58301H7.21729V8.27148C7.21729 7.73438 7.41602 7.45508 8.11963 7.04688C8.8501 6.61182 9.2583 6.03711 9.2583 5.21533C9.2583 4.03369 8.27539 3.18506 6.80371 3.18506C5.2085 3.18506 4.33301 4.10889 4.29004 5.37109ZM6.61035 11.1074C7.04541 11.1074 7.38916 10.769 7.38916 10.3447C7.38916 9.92041 7.04541 9.5874 6.61035 9.5874C6.17529 9.5874 5.82617 9.92041 5.82617 10.3447C5.82617 10.769 6.17529 11.1074 6.61035 11.1074Z" fill="white"/>
</svg>
