<svg width="20" height="17" viewBox="0 0 20 17" fill="none" xmlns="http://www.w3.org/2000/svg">
<path d="M17.0197 15.9288C17.673 15.6528 18.0466 14.8677 17.6556 14.2657C17.5777 14.1766 17.4515 14.0215 17.4515 14.0215L17.7806 13.864C18.5291 13.4916 18.9214 12.3243 18.1406 11.7345C18.3849 11.6399 18.5998 11.4836 18.7637 11.2813C18.9276 11.0791 19.0349 10.8379 19.0748 10.5819C19.1432 10.3314 19.1353 10.0667 19.0521 9.82061C18.9689 9.57457 18.8142 9.35817 18.6071 9.19843C18.8257 8.96125 18.9895 8.68003 19.0871 8.37424C19.1884 8.07226 19.184 7.7455 19.0748 7.44625C18.884 7.04841 18.5572 6.72973 18.1518 6.54635C17.9512 6.44919 17.741 6.37267 17.5245 6.31801C16.1313 5.97002 14.7295 6.52315 13.3277 6.38517C12.9565 6.33877 12.4864 6.24719 12.6262 5.73924C13.0506 3.78559 13.8907 2.49862 13.1632 0.818481C12.813 0.0162621 12.0707 -0.227946 11.4731 0.2275L11.4063 0.281225C11.0784 0.880753 10.9905 1.52668 10.7109 2.12621C10.1962 3.18728 9.757 3.66959 9.29303 4.89063C9.22663 5.15061 9.14398 5.4063 9.04558 5.65621C8.94264 5.90605 8.80524 6.14067 8.63729 6.35342C8.08299 7.12145 6.94224 7.59399 6.04523 7.8382L6.00812 15.1265C6.61397 15.111 7.21981 15.1581 7.81574 15.267C8.6645 15.422 9.03444 15.6003 9.87701 15.77C10.3389 15.8579 10.8017 15.9361 11.2652 16.0045C11.6129 16.0558 11.9148 16.1009 12.2637 16.14C13.8412 16.256 15.4768 16.5747 17.0197 15.9288Z" fill="#9BA1AA"/>
<path d="M4.67683 7.26309H0.618628C0.454558 7.26309 0.297207 7.32741 0.181192 7.44191C0.0651762 7.5564 0 7.71169 0 7.87361V15.1827C0 15.3446 0.0651762 15.4999 0.181192 15.6144C0.297207 15.7289 0.454558 15.7932 0.618628 15.7932H4.67683C4.8409 15.7932 4.99825 15.7289 5.11427 15.6144C5.23028 15.4999 5.29545 15.3446 5.29545 15.1827V7.87483C5.29562 7.79455 5.27974 7.71503 5.24872 7.64082C5.21771 7.56661 5.17216 7.49916 5.1147 7.44234C5.05724 7.38552 4.98899 7.34044 4.91385 7.30968C4.83872 7.27893 4.75817 7.26309 4.67683 7.26309ZM3.66352 14.9812C3.53641 14.9815 3.41209 14.9445 3.3063 14.875C3.20051 14.8054 3.11802 14.7065 3.06926 14.5906C3.02051 14.4748 3.00768 14.3472 3.03242 14.2242C3.05716 14.1012 3.11834 13.9881 3.20822 13.8994C3.2981 13.8107 3.41263 13.7503 3.53731 13.7259C3.66198 13.7015 3.7912 13.7142 3.90859 13.7623C4.02597 13.8104 4.12625 13.8918 4.19671 13.9962C4.26718 14.1006 4.30466 14.2233 4.30442 14.3488C4.30442 14.4318 4.28784 14.5141 4.25563 14.5908C4.22342 14.6675 4.17621 14.7373 4.1167 14.796C4.05718 14.8547 3.98653 14.9013 3.90877 14.9331C3.83102 14.9649 3.74768 14.9812 3.66352 14.9812Z" fill="#9BA1AA"/>
</svg>
