<svg width="20" height="20" viewBox="0 0 20 20" fill="none" xmlns="http://www.w3.org/2000/svg">
<path d="M9.27942 1.03656H5.73827C2.82598 1.03656 1 3.09836 1 6.01728V13.8913C1 16.8103 2.81746 18.8721 5.73827 18.8721H14.0953C17.0171 18.8721 18.8346 16.8103 18.8346 13.8913V10.0765M12.758 2.7541L17.0824 7.07849M6.75591 8.73816L13.8335 1.66059C14.7152 0.779803 16.1444 0.779803 17.0261 1.66059L18.1787 2.81319C19.0604 3.69493 19.0604 5.12503 18.1787 6.00582L11.067 13.1175C10.6816 13.5029 10.1588 13.7198 9.61326 13.7198H6.06548L6.15451 10.1398C6.16777 9.61326 6.38276 9.11131 6.75591 8.73816Z" stroke="white" stroke-width="1.5" stroke-linecap="round" stroke-linejoin="round"/>
</svg>
