<svg width="67" height="56" viewBox="0 0 67 56" fill="none" xmlns="http://www.w3.org/2000/svg">
<mask id="mask0_201_1864" style="mask-type:alpha" maskUnits="userSpaceOnUse" x="0" y="0" width="67" height="56">
<path d="M46.0093 55.2728H20.9307C20.4371 55.2728 19.9637 55.0767 19.6146 54.7277C19.2656 54.3786 19.0695 53.9052 19.0695 53.4116C19.0695 52.918 19.2656 52.4446 19.6146 52.0955C19.9637 51.7465 20.4371 51.5504 20.9307 51.5504H46.0093C46.5029 51.5504 46.9763 51.7465 47.3254 52.0955C47.6744 52.4446 47.8705 52.918 47.8705 53.4116C47.8705 53.9052 47.6744 54.3786 47.3254 54.7277C46.9763 55.0767 46.5029 55.2728 46.0093 55.2728Z" fill="#30CA51"/>
<path d="M59.4951 0H7.44487C5.47037 0 3.57675 0.78437 2.18056 2.18055C0.784378 3.57674 0 5.47037 0 7.44487V39.7343C0 41.7088 0.784378 43.6024 2.18056 44.9986C3.57675 46.3948 5.47037 47.1792 7.44487 47.1792H59.4951C61.4696 47.1792 63.3633 46.3948 64.7595 44.9986C66.1556 43.6024 66.94 41.7088 66.94 39.7343V7.44487C66.94 5.47037 66.1556 3.57674 64.7595 2.18055C63.3633 0.78437 61.4696 0 59.4951 0ZM63.2176 39.7343C63.2176 40.7216 62.8254 41.6684 62.1273 42.3665C61.4292 43.0646 60.4824 43.4568 59.4951 43.4568H7.44487C6.45762 43.4568 5.51081 43.0646 4.81272 42.3665C4.11462 41.6684 3.72243 40.7216 3.72243 39.7343V7.44487C3.72243 6.45762 4.11462 5.5108 4.81272 4.81271C5.51081 4.11462 6.45762 3.72243 7.44487 3.72243H59.4951C60.4824 3.72243 61.4292 4.11462 62.1273 4.81271C62.8254 5.5108 63.2176 6.45762 63.2176 7.44487V39.7343Z" fill="#30CA51"/>
</mask>
<g mask="url(#mask0_201_1864)">
<rect x="-45" y="-26" width="118" height="110" fill="#30CA51"/>
<rect x="-45" y="-26" width="118" height="75" fill="#30CA51"/>
</g>
</svg>
