<svg width="19" height="19" viewBox="0 0 19 19" fill="none" xmlns="http://www.w3.org/2000/svg">
<g clip-path="url(#clip0_201_1468)">
<rect x="-1155" y="-3917" width="1500" height="4030" fill="white"/>
<g clip-path="url(#clip1_201_1468)">
<g filter="url(#filter0_d_201_1468)">
<rect x="-1156" y="-39" width="1500" height="199" rx="30" fill="white"/>
</g>
<path d="M1.5 11C0.671573 11 0 10.3284 0 9.5C0 8.67157 0.671573 8 1.5 8H17.5C18.3284 8 19 8.67157 19 9.5C19 10.3284 18.3284 11 17.5 11H1.5Z" fill="black"/>
<path d="M1.5 11C0.671573 11 0 10.3284 0 9.5C0 8.67157 0.671573 8 1.5 8H17.5C18.3284 8 19 8.67157 19 9.5C19 10.3284 18.3284 11 17.5 11H1.5Z" fill="black"/>
<path d="M1.5 11C0.671573 11 0 10.3284 0 9.5C0 8.67157 0.671573 8 1.5 8H17.5C18.3284 8 19 8.67157 19 9.5C19 10.3284 18.3284 11 17.5 11H1.5Z" fill="black"/>
<path d="M1.5 19C0.671573 19 0 18.3284 0 17.5C0 16.6716 0.671573 16 1.5 16H17.5C18.3284 16 19 16.6716 19 17.5C19 18.3284 18.3284 19 17.5 19H1.5Z" fill="black"/>
<path d="M1.5 19C0.671573 19 0 18.3284 0 17.5C0 16.6716 0.671573 16 1.5 16H17.5C18.3284 16 19 16.6716 19 17.5C19 18.3284 18.3284 19 17.5 19H1.5Z" fill="black"/>
<path d="M1.5 19C0.671573 19 0 18.3284 0 17.5C0 16.6716 0.671573 16 1.5 16H17.5C18.3284 16 19 16.6716 19 17.5C19 18.3284 18.3284 19 17.5 19H1.5Z" fill="black"/>
<path d="M1.5 3C0.671573 3 0 2.32843 0 1.5C0 0.671573 0.671573 0 1.5 0L17.5 0C18.3284 0 19 0.671573 19 1.5C19 2.32843 18.3284 3 17.5 3L1.5 3Z" fill="black"/>
<path d="M1.5 3C0.671573 3 0 2.32843 0 1.5C0 0.671573 0.671573 0 1.5 0L17.5 0C18.3284 0 19 0.671573 19 1.5C19 2.32843 18.3284 3 17.5 3L1.5 3Z" fill="black"/>
<path d="M1.5 3C0.671573 3 0 2.32843 0 1.5C0 0.671573 0.671573 0 1.5 0L17.5 0C18.3284 0 19 0.671573 19 1.5C19 2.32843 18.3284 3 17.5 3L1.5 3Z" fill="black"/>
<g opacity="0.7">
</g>
</g>
</g>
<defs>
<filter id="filter0_d_201_1468" x="-1210" y="-89" width="1608" height="307" filterUnits="userSpaceOnUse" color-interpolation-filters="sRGB">
<feFlood flood-opacity="0" result="BackgroundImageFix"/>
<feColorMatrix in="SourceAlpha" type="matrix" values="0 0 0 0 0 0 0 0 0 0 0 0 0 0 0 0 0 0 127 0" result="hardAlpha"/>
<feOffset dy="4"/>
<feGaussianBlur stdDeviation="27"/>
<feComposite in2="hardAlpha" operator="out"/>
<feColorMatrix type="matrix" values="0 0 0 0 0 0 0 0 0 0 0 0 0 0 0 0 0 0 0.06 0"/>
<feBlend mode="normal" in2="BackgroundImageFix" result="effect1_dropShadow_201_1468"/>
<feBlend mode="normal" in="SourceGraphic" in2="effect1_dropShadow_201_1468" result="shape"/>
</filter>
<clipPath id="clip0_201_1468">
<rect x="-1155" y="-3917" width="1500" height="4030" rx="20" fill="white"/>
</clipPath>
<clipPath id="clip1_201_1468">
<rect width="1500" height="228" fill="white" transform="translate(-1156 -68)"/>
</clipPath>
</defs>
</svg>
