<svg width="25" height="25" viewBox="0 0 25 25" fill="none" xmlns="http://www.w3.org/2000/svg">
<path d="M7.09258 0C3.141 0 0 3.141 0 7.09258V17.2248C0 21.1764 3.141 24.3174 7.09258 24.3174H17.2248C21.1764 24.3174 24.3174 21.1764 24.3174 17.2248V7.09258C24.3174 3.141 21.1764 0 17.2248 0H7.09258ZM19.2513 4.0529C19.8592 4.0529 20.2645 4.45819 20.2645 5.06613C20.2645 5.67406 19.8592 6.07935 19.2513 6.07935C18.6433 6.07935 18.2381 5.67406 18.2381 5.06613C18.2381 4.45819 18.6433 4.0529 19.2513 4.0529ZM12.1587 6.07935C15.5023 6.07935 18.2381 8.81506 18.2381 12.1587C18.2381 15.5023 15.5023 18.2381 12.1587 18.2381C8.81506 18.2381 6.07935 15.5023 6.07935 12.1587C6.07935 8.81506 8.81506 6.07935 12.1587 6.07935ZM12.1587 8.1058C9.92961 8.1058 8.1058 9.92961 8.1058 12.1587C8.1058 14.3878 9.92961 16.2116 12.1587 16.2116C14.3878 16.2116 16.2116 14.3878 16.2116 12.1587C16.2116 9.92961 14.3878 8.1058 12.1587 8.1058Z" fill="#A0A0A0"/>
<path d="M7.09258 0C3.141 0 0 3.141 0 7.09258V17.2248C0 21.1764 3.141 24.3174 7.09258 24.3174H17.2248C21.1764 24.3174 24.3174 21.1764 24.3174 17.2248V7.09258C24.3174 3.141 21.1764 0 17.2248 0H7.09258ZM19.2513 4.0529C19.8592 4.0529 20.2645 4.45819 20.2645 5.06613C20.2645 5.67406 19.8592 6.07935 19.2513 6.07935C18.6433 6.07935 18.2381 5.67406 18.2381 5.06613C18.2381 4.45819 18.6433 4.0529 19.2513 4.0529ZM12.1587 6.07935C15.5023 6.07935 18.2381 8.81506 18.2381 12.1587C18.2381 15.5023 15.5023 18.2381 12.1587 18.2381C8.81506 18.2381 6.07935 15.5023 6.07935 12.1587C6.07935 8.81506 8.81506 6.07935 12.1587 6.07935ZM12.1587 8.1058C9.92961 8.1058 8.1058 9.92961 8.1058 12.1587C8.1058 14.3878 9.92961 16.2116 12.1587 16.2116C14.3878 16.2116 16.2116 14.3878 16.2116 12.1587C16.2116 9.92961 14.3878 8.1058 12.1587 8.1058Z" fill="#A0A0A0"/>
</svg>
