<svg width="21" height="26" viewBox="0 0 21 26" fill="none" xmlns="http://www.w3.org/2000/svg">
<path d="M9 1.5C9 0.671572 9.67157 0 10.5 0C11.3284 0 12 0.671573 12 1.5V24.5C12 25.3284 11.3284 26 10.5 26C9.67157 26 9 25.3284 9 24.5V1.5Z" fill="black"/>
<path d="M9 1.5C9 0.671572 9.67157 0 10.5 0C11.3284 0 12 0.671573 12 1.5V24.5C12 25.3284 11.3284 26 10.5 26C9.67157 26 9 25.3284 9 24.5V1.5Z" fill="black"/>
<path d="M9 1.5C9 0.671572 9.67157 0 10.5 0C11.3284 0 12 0.671573 12 1.5V24.5C12 25.3284 11.3284 26 10.5 26C9.67157 26 9 25.3284 9 24.5V1.5Z" fill="black"/>
<path d="M0 8.5C0 7.67157 0.671573 7 1.5 7C2.32843 7 3 7.67157 3 8.5V19.5C3 20.3284 2.32843 21 1.5 21C0.671573 21 0 20.3284 0 19.5V8.5Z" fill="black"/>
<path d="M0 8.5C0 7.67157 0.671573 7 1.5 7C2.32843 7 3 7.67157 3 8.5V19.5C3 20.3284 2.32843 21 1.5 21C0.671573 21 0 20.3284 0 19.5V8.5Z" fill="black"/>
<path d="M0 8.5C0 7.67157 0.671573 7 1.5 7C2.32843 7 3 7.67157 3 8.5V19.5C3 20.3284 2.32843 21 1.5 21C0.671573 21 0 20.3284 0 19.5V8.5Z" fill="black"/>
<path d="M18 8.5C18 7.67157 18.6716 7 19.5 7C20.3284 7 21 7.67157 21 8.5V19.5C21 20.3284 20.3284 21 19.5 21C18.6716 21 18 20.3284 18 19.5V8.5Z" fill="black"/>
<path d="M18 8.5C18 7.67157 18.6716 7 19.5 7C20.3284 7 21 7.67157 21 8.5V19.5C21 20.3284 20.3284 21 19.5 21C18.6716 21 18 20.3284 18 19.5V8.5Z" fill="black"/>
<path d="M18 8.5C18 7.67157 18.6716 7 19.5 7C20.3284 7 21 7.67157 21 8.5V19.5C21 20.3284 20.3284 21 19.5 21C18.6716 21 18 20.3284 18 19.5V8.5Z" fill="black"/>
</svg>
