<svg width="16" height="20" viewBox="0 0 16 20" fill="none" xmlns="http://www.w3.org/2000/svg">
<path fill-rule="evenodd" clip-rule="evenodd" d="M4.03614 1.0706C6.53312 -0.380258 9.60232 -0.354899 12.0759 1.13702C14.5251 2.65933 16.0137 5.3762 15.9998 8.29879C15.9428 11.2022 14.3466 13.9314 12.3514 16.0412C11.1998 17.2645 9.91156 18.3461 8.51296 19.264C8.36892 19.3473 8.21114 19.4031 8.04741 19.4286C7.88983 19.4219 7.73636 19.3753 7.60086 19.2931C5.46563 17.9138 3.59238 16.1532 2.07124 14.096C0.798387 12.3787 0.0752408 10.304 1.32769e-06 8.15362C-0.00165106 5.22542 1.53916 2.52145 4.03614 1.0706ZM5.47915 9.36556C5.89917 10.401 6.8906 11.0765 7.99051 11.0765C8.71108 11.0817 9.40375 10.793 9.91417 10.2749C10.4246 9.75681 10.7104 9.05225 10.7078 8.31824C10.7117 7.19785 10.0521 6.18559 9.03698 5.75412C8.0219 5.32265 6.85158 5.55706 6.07247 6.34792C5.29335 7.13877 5.05912 8.33006 5.47915 9.36556Z" fill="#30CA51"/>
</svg>
