<svg width="29" height="29" viewBox="0 0 29 29" fill="none" xmlns="http://www.w3.org/2000/svg">
<path d="M9.78031 17.5158C10.8076 18.3587 12.0531 18.8927 13.3719 19.0555C14.6907 19.2184 16.0287 19.0034 17.2302 18.4357C18.4316 17.868 19.4473 16.9709 20.1589 15.8487C20.8705 14.7264 21.2489 13.4252 21.25 12.0964V6.96129C21.2161 5.12273 20.4619 3.37094 19.1497 2.08271C17.8375 0.79449 16.0721 0.0727539 14.2332 0.0727539C12.3943 0.0727539 10.6289 0.79449 9.31669 2.08271C8.00447 3.37094 7.25027 5.12273 7.21634 6.96129V12.0964C7.21627 13.1331 7.44621 14.1569 7.88958 15.0941C8.33295 16.0312 8.97871 16.8583 9.78031 17.5158ZM9.78031 6.96129C9.80725 5.7988 10.288 4.693 11.1196 3.88035C11.9513 3.06771 13.068 2.61274 14.2308 2.61274C15.3936 2.61274 16.5102 3.06771 17.3419 3.88035C18.1736 4.693 18.6543 5.7988 18.6813 6.96129V12.0964C18.6543 13.2589 18.1736 14.3647 17.3419 15.1773C16.5102 15.99 15.3936 16.4449 14.2308 16.4449C13.068 16.4449 11.9513 15.99 11.1196 15.1773C10.288 14.3647 9.80725 13.2589 9.78031 12.0964V6.96129Z" fill="black"/>
<path d="M14.232 21.5541C11.4394 21.5562 8.68839 22.2303 6.21127 23.5196C3.73415 24.8089 1.60375 26.6755 0 28.9616H3.2832C4.67037 27.4366 6.36082 26.2182 8.24624 25.3845C10.1317 24.5507 12.1705 24.1201 14.232 24.1201C16.2935 24.1201 18.3323 24.5507 20.2177 25.3845C22.1031 26.2182 23.7936 27.4366 25.1808 28.9616H28.4735C26.8694 26.6736 24.7376 24.8058 22.2586 23.5164C19.7795 22.2269 17.0263 21.5538 14.232 21.5541Z" fill="black"/>
</svg>
